<svg id="Capa_1" enable-background="new 0 0 512 512" height="512" viewBox="0 0 512 512" width="512" xmlns="http://www.w3.org/2000/svg"><g><g><path d="m256 61c-66.27 0-120 53.73-120 120 0 66.276 53.742 120 120 120 66.271 0 120-53.736 120-120 0-66.27-53.73-120-120-120z" fill="#99ebfa"/><circle cx="406" cy="421" fill="#99ebfa" r="30"/><path d="m316 271v13.94c-17.65 10.22-38.14 16.06-60 16.06s-42.35-5.84-60-16.06v-13.94c0-33.14 26.86-60 60-60s60 26.86 60 60z" fill="#6d91ac"/><circle cx="256" cy="151" fill="#fce8d0" r="30"/><g fill="#99ebfa"><circle cx="256" cy="421" r="30"/><circle cx="106" cy="421" r="30"/></g></g><g><path d="m216 151c0 22.056 17.944 40 40 40s40-17.944 40-40-17.944-40-40-40-40 17.944-40 40zm60 0c0 11.028-8.972 20-20 20s-20-8.972-20-20 8.972-20 20-20 20 8.972 20 20z"/><path d="m502 411h-57.266c-4.452-17.233-20.13-30-38.734-30s-34.282 12.767-38.734 30h-72.532c-3.626-14.036-14.699-25.108-28.734-28.734v-71.666c67.687-5.209 120-61.691 120-129.6 0-17.948-3.593-35.334-10.68-51.676-2.197-5.067-8.087-7.395-13.153-5.196-5.067 2.197-7.393 8.086-5.196 13.153 5.991 13.816 9.029 28.525 9.029 43.719 0 33.081-15.055 64.279-40.198 84.999-2.576-36.271-32.887-64.999-69.802-64.999s-67.226 28.729-69.802 64.999c-25.142-20.718-40.198-51.917-40.198-84.999 0-60.654 49.346-110 110-110 15.195 0 29.904 3.038 43.719 9.029 5.067 2.197 10.956-.128 13.153-5.195s-.129-10.956-5.195-13.153c-16.342-7.088-33.728-10.681-51.677-10.681-71.682 0-130 58.318-130 130 0 67.836 52.238 124.385 120 129.6v71.666c-14.036 3.626-25.108 14.699-28.734 28.734h-72.532c-4.452-17.233-20.13-30-38.734-30s-34.282 12.767-38.734 30h-57.266c-5.523 0-10 4.477-10 10s4.477 10 10 10h57.266c4.452 17.233 20.13 30 38.734 30s34.282-12.767 38.734-30h72.532c4.452 17.233 20.13 30 38.734 30s34.282-12.767 38.734-30h72.532c4.452 17.233 20.13 30 38.734 30s34.282-12.767 38.734-30h57.266c5.523 0 10-4.477 10-10s-4.477-10-10-10zm-246-190c27.57 0 50 22.43 50 50v7.986c-15.392 7.866-32.556 12.014-50 12.014-17.443 0-34.606-4.147-50-12.014v-7.986c0-27.57 22.43-50 50-50zm-150 220c-11.028 0-20-8.972-20-20s8.972-20 20-20 20 8.972 20 20-8.972 20-20 20zm150 0c-11.028 0-20-8.972-20-20s8.972-20 20-20 20 8.972 20 20-8.972 20-20 20zm150 0c-11.028 0-20-8.972-20-20s8.972-20 20-20 20 8.972 20 20-8.972 20-20 20z"/><circle cx="341.001" cy="96" r="10"/></g></g></svg>