<svg id="Layer_3" enable-background="new 0 0 64 64" height="512" viewBox="0 0 64 64" width="512" xmlns="http://www.w3.org/2000/svg"><g fill="#f2f8ff"><circle cx="32" cy="47" r="6"/><circle cx="11" cy="47" r="6"/><circle cx="54" cy="47" r="6"/></g><path d="m32 41h-8c0 3.314 2.686 6 6 6h8c0-3.314-2.686-6-6-6z" fill="#4f4021"/><path d="m9 47h8c0-3.314-2.686-6-6-6h-8c0 3.314 2.686 6 6 6z" fill="#4f4021"/><path d="m32 53c-3.866 0-7 3.134-7 7v1h14v-1c0-3.866-3.134-7-7-7z" fill="#004fa8"/><path d="m11 53c-3.866 0-7 3.134-7 7v1h14v-1c0-3.866-3.134-7-7-7z" fill="#004fa8"/><path d="m54 53c-3.866 0-7 3.134-7 7v1h14v-1c0-3.866-3.134-7-7-7z" fill="#004fa8"/><path d="m54 41h-8c0 3.314 2.686 6 6 6h8c0-3.314-2.686-6-6-6z" fill="#4f4021"/><path d="m34 7.049v-.049l.215 1.076c.459 2.294 2.446 3.964 4.785 4.022v-3.098c0-3.314-2.686-6-6-6h-2c-3.314 0-6 2.686-6 6v3.099l4.05-.044c2.742-.031 4.95-2.263 4.95-5.006z" fill="#4f4021"/><path d="m33.576 20.325c.507-.217.976-.491 1.424-.79 2.462-1.639 4-4.408 4-7.436-2.339-.058-4.326-1.728-4.785-4.022l-.215-1.077v.049c0 2.743-2.208 4.975-4.95 5.005l-4.05.045c0 3.028 1.538 5.797 4 7.436.449.299.917.573 1.424.79 1.007.431 2.145.431 3.152 0z" fill="#f2f8ff"/><path d="m35 21v-1.465c-.449.299-.917.573-1.424.79-1.006.431-2.145.431-3.151 0-.507-.217-.976-.491-1.424-.79v1.465c0 1.135-.477 2.154-1.236 2.882l4.235 2.118 4.478-1.919c-.895-.734-1.478-1.834-1.478-3.081z" fill="#f2f8ff"/><path d="m39 25c-.962 0-1.832-.353-2.522-.919l-4.478 1.919-4.236-2.118c-.719.689-1.69 1.118-2.764 1.118-2.209 0-4 1.791-4 4v2h22v-2c0-2.209-1.791-4-4-4z" fill="#57a5ff"/><path d="m8 34c-.552 0-1 .448-1 1v3h2v-2h22v2h2v-2h22v2h2v-3c0-.552-.448-1-1-1h-23v-2h10c.552 0 1-.448 1-1v-2c0-2.757-2.243-5-5-5-1.654 0-3-1.346-3-3v-.957c2.474-1.851 4-4.762 4-7.945v-3.098c0-3.86-3.14-7-7-7h-2c-3.86 0-7 3.14-7 7v3.099c0 3.183 1.526 6.094 4 7.945v.956c0 1.654-1.346 3-3 3-2.757 0-5 2.243-5 5v2c0 .552.448 1 1 1h2v-2h-1v-1c0-1.654 1.346-3 3-3 1.079 0 2.073-.352 2.892-.936l3.108 1.554v3.382h-5v2h5v2zm23-30h2c2.757 0 5 2.243 5 5v1.927c-1.407-.408-2.504-1.548-2.804-3.047l-.216-1.076c-.101-.504-.574-.827-1.079-.774-.511.05-.901.505-.901 1.019 0 2.184-1.777 3.981-3.961 4.005l-3.039.034v-2.088c0-2.757 2.243-5 5-5zm-4.927 9.087 2.988-.033c2.078-.023 3.911-1.116 4.972-2.762.863 1.384 2.267 2.355 3.902 2.68-.312 2.826-2.098 5.295-4.754 6.433-.751.321-1.612.321-2.363 0-2.62-1.122-4.398-3.54-4.745-6.318zm3.957 8.157c.626.268 1.298.402 1.97.402s1.344-.134 1.97-.402c.018-.008.034-.019.052-.027.04.915.318 1.768.787 2.492l-2.777 1.19-2.742-1.371c.405-.685.651-1.467.688-2.31.018.007.034.018.052.026zm2.97 5.415 3.351-1.436c.77.485 1.674.777 2.649.777 1.654 0 3 1.346 3 3v1h-9z"/><path d="m39 47c0-3.86-3.14-7-7-7h-8c-.552 0-1 .448-1 1 0 3.86 3.14 7 7 7h6.899c-.465 2.279-2.484 4-4.899 4-2.452 0-4.526-1.752-4.931-4.166l-1.973.331c.342 2.036 1.534 3.731 3.176 4.761-2.537 1.344-4.272 4.009-4.272 7.074v1c0 .552.448 1 1 1h14c.552 0 1-.448 1-1v-1c0-3.07-1.74-5.738-4.284-7.078 1.969-1.241 3.284-3.428 3.284-5.922zm-1 13h-12c0-2.967 2.167-5.431 5-5.91v4.91h2v-4.91c2.833.479 5 2.943 5 5.91zm-12.899-18h6.899c2.415 0 4.435 1.721 4.899 4h-6.899c-2.415 0-4.435-1.721-4.899-4z"/><path d="m14.716 52.922c1.969-1.241 3.284-3.428 3.284-5.922 0-3.86-3.14-7-7-7h-8c-.552 0-1 .448-1 1 0 3.86 3.14 7 7 7h6.899c-.465 2.279-2.484 4-4.899 4-2.452 0-4.526-1.752-4.931-4.166l-1.973.331c.342 2.036 1.534 3.731 3.176 4.761-2.537 1.344-4.272 4.009-4.272 7.074v1c0 .552.448 1 1 1h14c.552 0 1-.448 1-1v-1c0-3.07-1.74-5.738-4.284-7.078zm-10.615-10.922h6.899c2.415 0 4.435 1.721 4.899 4h-6.899c-2.415 0-4.435-1.721-4.899-4zm.899 18c0-2.967 2.167-5.431 5-5.91v4.91h2v-4.91c2.833.478 5 2.942 5 5.91z"/><path d="m57.716 52.922c1.969-1.241 3.284-3.428 3.284-5.922 0-3.86-3.14-7-7-7h-8c-.552 0-1 .448-1 1 0 3.86 3.14 7 7 7h6.899c-.465 2.279-2.484 4-4.899 4-2.452 0-4.526-1.752-4.931-4.166l-1.973.331c.342 2.036 1.534 3.731 3.176 4.761-2.537 1.344-4.272 4.009-4.272 7.074v1c0 .552.448 1 1 1h14c.552 0 1-.448 1-1v-1c0-3.07-1.74-5.738-4.284-7.078zm-10.615-10.922h6.899c2.415 0 4.435 1.721 4.899 4h-6.899c-2.415 0-4.435-1.721-4.899-4zm.899 18c0-2.967 2.167-5.431 5-5.91v4.91h2v-4.91c2.833.478 5 2.942 5 5.91z"/></svg>