<svg height="512pt" viewBox="0 0 512 512" width="512pt" xmlns="http://www.w3.org/2000/svg"><path d="m512 256c0 141.386719-114.613281 256-256 256s-256-114.613281-256-256 114.613281-256 256-256 256 114.613281 256 256zm0 0" fill="#00ffe7"/><path d="m330.371094 137.414062h-122.5l5.546875 112.34375 9.960937 28.75-32.273437 9.101563 50.847656 50.847656-39.484375 48.539063 117.050781 117.054687c92.597657-23.640625 164.992188-97.765625 186.160157-191.324219zm0 0" fill="#00aba2"/><path d="m363.0625 212.425781c0-56.570312-45.859375-102.429687-102.429688-102.429687-56.570312 0-102.429687 45.859375-102.429687 102.429687 0 47 31.667969 86.578125 74.824219 98.632813v20.726562h-30.558594v55.210938h30.558594v27.003906h55.210937v-27.003906h30.558594v-55.210938h-30.558594v-20.726562c43.15625-12.054688 74.824219-51.632813 74.824219-98.632813zm-149.644531 0c0-26.035156 21.179687-47.214843 47.214843-47.214843 26.035157 0 47.214844 21.179687 47.214844 47.214843 0 26.035157-21.179687 47.214844-47.214844 47.214844-26.03125 0-47.214843-21.179687-47.214843-47.214844zm0 0" fill="#ff92f8"/><path d="m260.632812 414.003906h27.609376v-27.003906h30.554687v-55.214844h-30.554687v-20.726562c43.152343-12.050782 74.820312-51.632813 74.820312-98.632813 0-56.570312-45.859375-102.425781-102.429688-102.425781v55.210938c26.035157 0 47.214844 21.179687 47.214844 47.214843 0 26.035157-21.179687 47.214844-47.214844 47.214844zm0 0" fill="#ff35e7"/></svg>