<svg height="512pt" viewBox="0 0 512 512" width="512pt" xmlns="http://www.w3.org/2000/svg"><path d="m512 256c0 141.386719-114.613281 256-256 256s-256-114.613281-256-256 114.613281-256 256-256 256 114.613281 256 256zm0 0" fill="#ffa8b4"/><path d="m509.964844 288.421875-143.605469-143.609375-78.929687 91.714844-112.28125-13.933594-27.25 134.210938 151.511718 151.511718c110.234375-18.832031 196.429688-108.125 210.554688-219.894531zm0 0" fill="#ff5e95"/><path d="m366.359375 144.8125-.007813.003906.003907-.007812-86.808594-21.574219-12.59375 50.664063 26.753906 6.648437-26.765625 26.765625c-13.953125-7.792969-30.03125-12.242188-47.148437-12.242188-53.488281 0-96.847657 43.359376-96.847657 96.847657s43.359376 96.847656 96.847657 96.847656 96.847656-43.359375 96.847656-96.847656c0-17.402344-4.59375-33.730469-12.628906-47.84375l27.242187-27.242188 7.300782 27.867188 50.5-13.226563zm-146.566406 191.75c-24.617188 0-44.640625-20.027344-44.640625-44.644531 0-24.617188 20.023437-44.644531 44.640625-44.644531 24.617187 0 44.644531 20.027343 44.644531 44.644531-.003906 24.617187-20.03125 44.644531-44.644531 44.644531zm0 0" fill="#0095ff"/><path d="m366.351562 144.816406.003907-.007812-86.808594-21.574219-12.59375 50.660156 26.753906 6.652344-26.765625 26.765625c-5.351562-2.992188-11.023437-5.484375-16.941406-7.429688v59.199219c8.867188 8.164063 14.433594 19.859375 14.433594 32.835938 0 12.972656-5.566406 24.671875-14.433594 32.835937v59.199219c38.691406-12.691406 66.640625-49.097656 66.640625-92.035156 0-17.402344-4.59375-33.730469-12.628906-47.847657l27.242187-27.242187 7.300782 27.867187 50.5-13.226562-22.695313-86.65625zm0 0" fill="#0050c3"/></svg>