<svg height="512" viewBox="0 0 64 64" width="512" xmlns="http://www.w3.org/2000/svg"><g id="Bitcoin-26" data-name="Bitcoin"><path d="m46.256 10.068a3 3 0 0 0 -4.143 1.132l-3.606 6.515a1 1 0 1 0 1.75.969l3.606-6.515a1 1 0 0 1 1.381-.379l1.025.6 1.008-1.728z" fill="#005ece"/><path d="m7 25h54v32h-54z" fill="#00a651"/><path d="m3 29h54v32h-54z" fill="#dcf4ca"/><path d="m54 29v16a14 14 0 0 1 -14 14h-37v2h54v-32z" fill="#c9eeae"/><path d="m30 48 5.732-5.928-3.464-2z" fill="#ff9811"/><circle cx="16" cy="45" fill="#fbb040" r="9"/><path d="m16 36a8.935 8.935 0 0 0 -1 .059 9 9 0 0 1 0 17.882 9 9 0 1 0 1-17.941z" fill="#f7941d"/><path d="m27 51h26v6h-26z" fill="#91dc5a"/><path d="m31.402 39.572.866.5 3.464 2 .866.5 2.5-4.33-5.196-3z" fill="#58595b"/><path d="m47.89 25h.008l5.566-9.641-6.928-4-13.5 23.383.866.5 5.196 3 .866.5 5.624-9.742h-.008.008l2.31-4z" fill="#006df0"/><path d="m49 7.627h4v8h-4z" fill="#ed1c24" transform="matrix(.5 -.866 .866 .5 15.431 49.981)"/><path d="m57.464 8.431a4 4 0 0 0 -6.928-4l-2 3.464 6.928 4z" fill="#006df0"/><g fill="#00a651"><path d="m53 42h-12a1 1 0 0 0 0 2h12a1 1 0 0 0 0-2z"/><path d="m53 38h-9a1 1 0 0 0 0 2h9a1 1 0 0 0 0-2z"/><path d="m53 46h-16a1 1 0 0 0 0 2h16a1 1 0 0 0 0-2z"/></g><path d="m18 40v-1a1 1 0 0 0 -2 0v1h-1v-1a1 1 0 0 0 -2 0v1h-1a1 1 0 0 0 0 2h1v6h-1a1 1 0 0 0 0 2h1v1a1 1 0 0 0 2 0v-1h1v1a1 1 0 0 0 2 0v-1a2.987 2.987 0 0 0 2.22-5 2.987 2.987 0 0 0 -2.22-5zm1 3a1 1 0 0 1 -1 1h-3v-2h3a1 1 0 0 1 1 1zm-1 5h-3v-2h3a1 1 0 0 1 0 2z" fill="#f15a29"/></g></svg>