<svg height="512pt" viewBox="0 0 512 512" width="512pt" xmlns="http://www.w3.org/2000/svg"><path d="m512 256c0 141.386719-114.613281 256-256 256s-256-114.613281-256-256 114.613281-256 256-256 256 114.613281 256 256zm0 0" fill="#0095ff"/><path d="m290.78125 509.636719c120.066406-16.3125 213.65625-115.851563 220.769531-238.605469l-156.367187-156.367188-93.183594 69.292969-77.796875 6.066407-16.902344 78.492187-11.53125 30.84375 69.726563 69.730469-50.546875 24.710937zm0 0" fill="#0050c3"/><path d="m355.183594 114.664062h-.003906v-.003906l-77.625-19.292968-11.261719 45.300781 23.925781 5.949219-23.941406 23.941406c-12.476563-6.96875-26.847656-10.957032-42.15625-10.957032-47.828125 0-86.597656 38.773438-86.597656 86.601563 0 39.738281 26.773437 73.203125 63.257812 83.394531v17.523438h-25.832031v46.679687h25.832031v22.832031h46.683594v-22.832031h25.835937v-46.679687h-25.835937v-17.523438c36.484375-10.191406 63.261718-43.65625 63.261718-83.394531 0-15.558594-4.125-30.148437-11.308593-42.765625l24.375-24.378906 6.527343 24.917968 45.160157-11.828124zm-131.0625 171.460938c-22.007813 0-39.917969-17.910156-39.917969-39.921875s17.910156-39.917969 39.917969-39.917969c22.015625 0 39.921875 17.90625 39.921875 39.917969 0 22.015625-17.90625 39.921875-39.921875 39.921875zm0 0" fill="#ff92f8"/><g fill="#ff35e7"><path d="m256.5 347.121094h16.800781v46.683594h-16.800781zm0 0"/><path d="m355.179688 114.664062v-.003906l-77.625-19.292968-11.261719 45.300781 23.925781 5.949219-23.941406 23.941406c-3.144532-1.757813-6.410156-3.320313-9.777344-4.679688v57.0625c4.726562 6.558594 7.542969 14.578125 7.542969 23.261719s-2.816407 16.703125-7.542969 23.261719v57.042968c31.78125-12.824218 54.226562-43.929687 54.226562-80.304687 0-15.558594-4.125-30.148437-11.308593-42.765625l24.375-24.378906 6.527343 24.917968 45.15625-11.828124-20.292968-77.488282zm0 0"/></g></svg>