<svg id="Capa_1" enable-background="new 0 0 512 512" height="512" viewBox="0 0 512 512" width="512" xmlns="http://www.w3.org/2000/svg"><path d="m254.459 495.038h-51.134c-2.765 0-5.007-2.242-5.007-5.007v-90.677h61.147v90.677c.001 2.765-2.241 5.007-5.006 5.007z" fill="#7ca1b1"/><path d="m254.459 495.038h-13.918v-95.684h18.925v90.677c0 2.765-2.242 5.007-5.007 5.007z" fill="#678d98"/><path d="m279.557 399.354h-98.591c-2.765 0-5.007-2.242-5.007-5.007v-48.202h108.605v48.202c-.001 2.765-2.242 5.007-5.007 5.007z" fill="#deecf1"/><path d="m279.557 399.354h-15.072v-53.209h20.078v48.202c0 2.765-2.241 5.007-5.006 5.007z" fill="#a8d3d8"/><path d="m449.921 346.145h-439.319c-1.707 0-3.091-1.384-3.091-3.091v-29.012c0-1.707 1.384-3.091 3.091-3.091h439.319c1.707 0 3.091 1.384 3.091 3.091v29.012c0 1.707-1.384 3.091-3.091 3.091z" fill="#537983"/><path d="m449.921 346.145h-25.835v-35.195h25.835c1.707 0 3.091 1.384 3.091 3.091v29.012c0 1.708-1.384 3.092-3.091 3.092z" fill="#3e5959"/><path d="m332.067 310.95h-308.905v-96.038c0-70.384 57.058-127.442 127.442-127.442h181.463z" fill="#7ca1b1"/><path d="m332.067 87.47v223.479h-147.953v-115.352c0-48.72 29.74-90.484 72.043-108.127z" fill="#7ca1b1"/><path d="m438.862 310.95h-235.294v-109.345c0-63.034 51.099-114.134 114.134-114.134h7.027c63.034 0 114.134 51.099 114.134 114.134v109.345z" fill="#deecf1"/><path d="m324.728 87.47h-7.028c-5.411 0-10.739.373-15.943 1.109 55.489 7.754 98.196 55.406 98.196 113.03v109.34h38.914v-109.34c0-63.035-51.104-114.139-114.139-114.139z" fill="#a8d3d8"/><path d="m192.738 61.203h-50.947c-3.06 0-5.541-2.481-5.541-5.541v-33.16c0-3.06 2.481-5.541 5.541-5.541h50.947z" fill="#ff5757"/><path d="m174.019 16.961h18.719v44.242h-18.719z" fill="#f72c2c"/><path d="m493.939 276.16h-149.926c-5.827 0-10.551-4.724-10.551-10.551v-110.779c0-5.827 4.724-10.551 10.551-10.551h149.926c5.827 0 10.551 4.724 10.551 10.551v110.779c0 5.828-4.724 10.551-10.551 10.551z" fill="#ffcd6b"/><path d="m504.49 154.833v110.776c0 5.828-4.726 10.554-10.554 10.554h-20.026c5.827 0 10.554-4.726 10.554-10.554v-110.776c0-5.828-4.726-10.554-10.554-10.554h20.026c5.827 0 10.554 4.727 10.554 10.554z" fill="#ffc143"/><path d="m449.001 203.514c-6.583-10.195-17.889-16.353-30.025-16.353-12.135 0-23.442 6.158-30.025 16.353l-46.907 72.646h76.932 76.932z" fill="#fa0"/><path d="m495.909 276.163h-23.902l-46.902-72.646c-4.346-6.719-10.744-11.695-18.084-14.289 3.785-1.352 7.82-2.063 11.956-2.063 12.136 0 23.441 6.158 30.019 16.351z" fill="#ff9500"/><path d="m418.976 144.279h-76.227l63.904 66.653c6.875 6.635 17.77 6.635 24.645 0l63.904-66.653z" fill="#ffe1a8"/><path d="m495.197 144.279-63.904 66.658c-6.869 6.629-17.763 6.629-24.643 0l-.861-.901c2.293-.821 4.456-2.133 6.328-3.935l59.278-61.821h23.802z" fill="#ffd98f"/><path d="m295.062 209.592c0-4.148-3.362-7.51-7.51-7.51h-40.463c-4.148 0-7.51 3.362-7.51 7.51s3.362 7.51 7.51 7.51h40.463c4.148 0 7.51-3.362 7.51-7.51z"/><path d="m303.584 229.065h-36.308c-4.148 0-7.51 3.362-7.51 7.51s3.362 7.51 7.51 7.51h36.308c4.148 0 7.51-3.362 7.51-7.51s-3.362-7.51-7.51-7.51z"/><path d="m303.584 176.355h-18.315c-4.148 0-7.51 3.362-7.51 7.51s3.362 7.51 7.51 7.51h18.315c4.148 0 7.51-3.362 7.51-7.51s-3.362-7.51-7.51-7.51z"/><path d="m497.45 137.118c-.716-.225-1.471-.349-2.247-.349h-1.263-66.348c-19.934-31.514-53.928-53.277-93.103-56.405-.76-.26-1.573-.404-2.421-.404h-7.339-7.027-117.454v-18.756-44.242c0-4.148-3.362-7.51-7.51-7.51h-50.947c-7.196 0-13.051 5.854-13.051 13.05v33.16c0 7.197 5.855 13.051 13.051 13.051h43.437v11.247h-34.624c-74.413 0-134.952 60.54-134.952 134.952v88.528h-5.051c-5.845 0-10.601 4.756-10.601 10.601v29.013c0 5.846 4.756 10.601 10.601 10.601h157.847v40.692c0 6.902 5.615 12.516 12.516 12.516h9.844v83.168c0 6.902 5.615 12.517 12.516 12.517h51.134c6.902 0 12.516-5.615 12.516-12.517v-83.168h12.581c6.902 0 12.516-5.615 12.516-12.516v-40.692h35.521c4.148 0 7.51-3.362 7.51-7.51s-3.362-7.51-7.51-7.51h-312.572v-20.175h8.142 180.406 124.888 110.406 6.641v20.175h-85.033c-4.148 0-7.51 3.362-7.51 7.51s3.362 7.51 7.51 7.51h89.45c5.846 0 10.602-4.755 10.602-10.601v-29.013c0-5.846-4.756-10.601-10.602-10.601h-3.549v-19.77h47.568 1.969c1.179 0 2.31-.291 3.329-.796 7.381-2.27 12.762-9.15 12.762-17.265v-110.778c.001-8.757-6.266-16.073-14.549-17.713zm-245.494 350.41h-46.127v-80.665h46.127zm-68.487-133.873h93.585v38.189h-93.585zm294.129-201.865-51.606 53.827c-3.959 3.731-10.076 3.729-14.033 0l-51.606-53.827zm-93.882 46.071c-.368.517-.727 1.043-1.074 1.58l-41.67 64.535v-109.145c0-.45.105-.875.281-1.259zm-239.956-144.167v-29.222h41.469v29.222zm287.592 249.746h-115.819-104.455v-49.966c0-4.148-3.362-7.51-7.51-7.51s-7.51 3.362-7.51 7.51v49.966h-165.386v-88.528c0-66.131 53.801-119.932 119.932-119.932h34.624v19.619c0 4.148 3.362 7.51 7.51 7.51s7.51-3.362 7.51-7.51v-19.619h58.953c-37.605 20.715-63.143 60.741-63.143 106.624v17.157c0 4.148 3.362 7.51 7.51 7.51s7.51-3.362 7.51-7.51v-17.157c0-58.792 47.832-106.624 106.624-106.624h.686 6.341c34.422 0 65.084 16.397 84.592 41.789h-65.307-1.264c-.776 0-1.531.124-2.248.349-8.282 1.64-14.549 8.956-14.549 17.712v110.779c0 8.115 5.382 14.995 12.762 17.264 1.02.506 2.15.796 3.329.796h1.969 87.339zm-75.519-34.79 38.535-59.68 6.865 7.16c.067.07.136.139.206.206 4.917 4.746 11.227 7.118 17.537 7.118 6.311 0 12.621-2.372 17.538-7.118.07-.067.139-.136.206-.206l6.865-7.16 38.535 59.681h-126.287zm141.147-4.675-41.67-64.535c-.347-.537-.708-1.061-1.075-1.579l42.464-44.291c.177.385.281.809.281 1.26z"/></svg>