<svg id="Layer_1" enable-background="new 0 0 511.999 511.999" height="512" viewBox="0 0 511.999 511.999" width="512" xmlns="http://www.w3.org/2000/svg"><g><path d="m448.988 139.387-68.838 63.722-11.395 40.185h-56.515l-17.103-24.389-84.841-25.16-76.163-26.978h-97.615v56.528l-36.508 36.508v130.747l64.231 64.231h94.542l43.529 46.164h68.864v-35.554l25.26-21.149h57.827l18.605 67.757h94.075l-24.252-99.426 25.067-48.102v-86.006l44.231-76.526v-62.552z" fill="#07485e"/><path d="m448.988 139.387-68.838 63.722-11.395 40.185h-56.515l-17.103-24.389-39.127-11.603v293.643h15.166v-35.554l25.26-21.149h57.827l18.605 67.757h94.075l-24.252-99.426 25.067-48.102v-86.006l44.231-76.526v-62.552z" fill="#04303e"/><path d="m256.01 0c-60.673 0-110.034 49.361-110.034 110.034 0 75.249 96.153 158.913 100.246 162.438l9.788 8.428 9.788-8.428c4.093-3.525 100.246-87.189 100.246-162.438 0-60.673-49.361-110.034-110.034-110.034z" fill="#ff432e"/><path d="m256.01 0v280.9l9.788-8.428c4.093-3.525 100.246-87.189 100.246-162.438 0-60.673-49.361-110.034-110.034-110.034z" fill="#db0404"/><circle cx="255.996" cy="110.034" fill="#fff5f5" r="45.033"/><path d="m301.03 110.034c0-24.827-20.194-45.025-45.02-45.033v90.066c24.825-.007 45.02-20.206 45.02-45.033z" fill="#efe2dd"/></g></svg>