<svg height="512" viewBox="0 0 512 512" width="512" xmlns="http://www.w3.org/2000/svg" xmlns:xlink="http://www.w3.org/1999/xlink"><linearGradient id="New_Gradient_Swatch_20" gradientUnits="userSpaceOnUse" x1="15.5" x2="495.5" y1="288.5" y2="288.5"><stop offset=".011" stop-color="#fce6aa"/><stop offset="1" stop-color="#fdf3d4"/></linearGradient><linearGradient id="New_Gradient_Swatch_8" gradientUnits="userSpaceOnUse" x1="15.5" x2="495.5" y1="208.25" y2="208.25"><stop offset=".011" stop-color="#fad46a"/><stop offset="1" stop-color="#fce6aa"/></linearGradient><linearGradient id="New_Gradient_Swatch_10" gradientUnits="userSpaceOnUse" x1="15.5" x2="495.5" y1="269.264" y2="269.264"><stop offset=".015" stop-color="#bfe8e5"/><stop offset="1" stop-color="#dff4f2"/></linearGradient><linearGradient id="New_Gradient_Swatch_5" gradientUnits="userSpaceOnUse" x1="15.5" x2="495.5" y1="368.25" y2="368.25"><stop offset=".011" stop-color="#f8c73f"/><stop offset="1" stop-color="#fada7f"/></linearGradient><linearGradient id="New_Gradient_Swatch_8-2" x1="15.5" x2="495.5" xlink:href="#New_Gradient_Swatch_8" y1="407.002" y2="407.002"/><linearGradient id="New_Gradient_Swatch_20-2" xlink:href="#New_Gradient_Swatch_20" y1="388.25" y2="388.25"/><linearGradient id="New_Gradient_Swatch_20-3" xlink:href="#New_Gradient_Swatch_20" y1="303.498" y2="303.498"/><linearGradient id="New_Gradient_Swatch_20-4" xlink:href="#New_Gradient_Swatch_20" y1="192.08" y2="192.08"/><linearGradient id="New_Gradient_Swatch_12" gradientUnits="userSpaceOnUse" x1="15.5" x2="495.5" y1="391.561" y2="391.561"><stop offset=".011" stop-color="#80d1cb"/><stop offset="1" stop-color="#bfe8e5"/></linearGradient><linearGradient id="New_Gradient_Swatch_5-2" x2="495.5" xlink:href="#New_Gradient_Swatch_5" y1="157.221" y2="157.221"/><linearGradient id="New_Gradient_Swatch_13" gradientUnits="userSpaceOnUse" x1="203.904" x2="308.096" y1="174.464" y2="70.272"><stop offset="0" stop-color="#d46669"/><stop offset="1" stop-color="#dd888a"/></linearGradient><linearGradient id="New_Gradient_Swatch_22" gradientUnits="userSpaceOnUse" x1="236.201" x2="275.799" y1="139.799" y2="100.201"><stop offset=".011" stop-color="#dcdce3"/><stop offset="1" stop-color="#ededf1"/></linearGradient><g id="_07-map" data-name="07-map"><g id="linear_color" data-name="linear color"><g id="group"><path d="m15.5 128.5h480v320h-480z" fill="url(#New_Gradient_Swatch_20)"/><path d="m216 288 165.787-63.493-13.716-96.007h-116.488l-98.929 57.443z" fill="url(#New_Gradient_Swatch_8)"/><path d="m396.766 329.362 98.734 28.209v-176.614l-113.713 43.55z" fill="url(#New_Gradient_Swatch_10)"/><path d="m216 288-113.225 46.622 1.225 1.378 41.447 112.5h34.286l60.267-56.5z" fill="url(#New_Gradient_Swatch_5)"/><path d="m240 392-60.267 56.5h116.6l6.594-82.996z" fill="url(#New_Gradient_Swatch_8-2)"/><path d="m396.766 329.362-4.766-1.362-89.073 37.5-6.594 83h117.453z" fill="url(#New_Gradient_Swatch_20-2)"/><path d="m32.586 255.66-.586.34.586-.34-17.086-19.222v134.121l87.275-35.937z" fill="url(#New_Gradient_Swatch_20-3)"/><path d="m152.654 185.943-35.654-57.443h-101.5v107.938l17.086 19.222z" fill="url(#New_Gradient_Swatch_20-4)"/><path d="m102.775 334.622-87.275 35.937v77.941h129.947l-41.447-112.5z" fill="url(#New_Gradient_Swatch_12)"/><path d="m251.583 128.5h-134.583l35.654 57.443z" fill="url(#New_Gradient_Swatch_5-2)"/><path d="m184 120a72 72 0 0 1 144 0c0 48-72 104-72 104s-72-56-72-104z" fill="url(#New_Gradient_Swatch_13)"/><circle cx="256" cy="120" fill="url(#New_Gradient_Swatch_22)" r="28"/></g><path d="m495.5 116.5h-155.589a83.983 83.983 0 0 0 -167.822 0h-156.589a12 12 0 0 0 -12 12v320a12 12 0 0 0 12 12h480a12 12 0 0 0 12-12v-320a12 12 0 0 0 -12-12zm-285.423 320 36.561-34.275 43.8-18.444-5.019 52.719zm-56.259 0-35.164-95.438 88.834-36.579 19.266 83.486-51.769 48.531zm-126.318-168.5 55.081 61.96-55.081 22.681zm23.81-9.337 97.29-56.5 49.736 80.13-92.252 37.987zm129.862-103.163-24.47 14.21-18.13-29.21h36.653a101.927 101.927 0 0 0 5.947 15zm12.3 20.608a233.867 233.867 0 0 0 17.606 21.92 323.174 323.174 0 0 0 37.552 35.445 12 12 0 0 0 14.734 0 323.174 323.174 0 0 0 37.552-35.445c18.513-20.569 30.506-39.833 35.856-57.527h20.887l10.891 76.227-147.583 56.52-51.6-83.139zm189.65 142.609-134.639 56.69-18.443-79.934 142-54.38zm-67.567 54.49 71.077-29.926 13.319 93.22h-90.423zm79.466-140.917 88.479-33.885v143.256l-75.953-21.7zm88.479-59.584-91.96 35.218-9.634-67.424h101.594zm-227.5-112.706a60.068 60.068 0 0 1 60 60c0 30.588-38.281 69.814-60 88.47-21.723-18.659-60-57.884-60-88.47a60.068 60.068 0 0 1 60-60zm-145.675 80.5 25.614 41.267-100.9 58.594-7.539-8.483v-91.378zm-82.825 238.1 68.946-28.389 31.794 86.289h-100.74zm396.7 57.9-12.933-90.518 72.233 20.639v69.879z"/><path d="m296 120a40 40 0 1 0 -40 40 40.045 40.045 0 0 0 40-40zm-56 0a16 16 0 1 1 16 16 16.019 16.019 0 0 1 -16-16z"/></g></g></svg>