<?xml version="1.0" encoding="iso-8859-1"?>
<!-- Generator: Adobe Illustrator 19.0.0, SVG Export Plug-In . SVG Version: 6.00 Build 0)  -->
<svg version="1.1" id="Capa_1" xmlns="http://www.w3.org/2000/svg" xmlns:xlink="http://www.w3.org/1999/xlink" x="0px" y="0px"
	 viewBox="0 0 512 512" style="enable-background:new 0 0 512 512;" xml:space="preserve">
<polygon style="fill:#4B9FD8;" points="256,461.104 205.072,495.904 205.072,367.472 256,367.472 "/>
<polygon style="fill:#3789C9;" points="256,461.104 306.928,495.904 306.928,367.472 256,367.472 "/>
<polygon style="opacity:0.05;fill:#010101;enable-background:new    ;" points="205.136,445.424 231.408,441.376 255.968,461.104 
	256.016,461.056 256.048,461.088 280.592,441.376 306.896,445.44 306.896,367.472 205.136,367.472 "/>
<path style="fill:#EBCEB8;" d="M496,16.096H16c-8.832,0-16,7.168-16,16v309.808c0,8.832,7.168,16,16,16h480c8.832,0,16-7.168,16-16
	V32.096C512,23.248,504.832,16.096,496,16.096z"/>
<path style="fill:#FDF2E5;" d="M45.888,313.472c-26.432-15.6,6.272-34.272,6.272-64.976s-8.32-30.704-8.32-61.408
	c0-30.752,8.32-30.752,8.32-61.504s-32.736-49.408-6.272-65.072c44.704-26.464,54.064,7.744,106.016,7.744
	c52,0,52-8.32,103.984-8.32c52.032,0,52.032,8.32,104.064,8.32s61.36-34.176,106.176-7.744c26.432,15.6-6.272,34.272-6.272,64.976
	s8.32,30.704,8.32,61.408c0,30.752-8.32,30.752-8.32,61.504s32.736,49.424,6.272,65.088c-44.704,26.464-54.064-7.744-106.016-7.744
	c-52,0-52,8.32-103.984,8.32c-52.032,0-53.616-17.536-104.8-8.256C97.072,315.632,90.704,339.904,45.888,313.472z"/>
<g>
	<path style="fill:#84CA9B;" d="M426.208,284.448h-80.544c-4.416,0-8-3.584-8-8s3.584-8,8-8h80.544c4.416,0,8,3.584,8,8
		S430.64,284.448,426.208,284.448z"/>
	<path style="fill:#84CA9B;" d="M166.32,284.448H85.792c-4.416,0-8-3.584-8-8s3.584-8,8-8h80.528c4.416,0,8,3.584,8,8
		S170.736,284.448,166.32,284.448z"/>
	<path style="fill:#84CA9B;" d="M426.208,225.456H85.792c-4.416,0-8-3.584-8-8s3.584-8,8-8h340.416c4.416,0,8,3.584,8,8
		S430.64,225.456,426.208,225.456z"/>
	<path style="fill:#84CA9B;" d="M426.208,166.448H85.792c-4.416,0-8-3.584-8-8s3.584-8,8-8h340.416c4.416,0,8,3.584,8,8
		S430.64,166.448,426.208,166.448z"/>
	<path style="fill:#84CA9B;" d="M357.856,107.456H154.144c-4.416,0-8-3.584-8-8s3.584-8,8-8h203.712c4.416,0,8,3.584,8,8
		S362.288,107.456,357.856,107.456z"/>
</g>
<polygon style="fill:#ED6362;" points="357.232,349.632 339.312,371.952 343.68,400.256 316.976,410.608 306.624,437.312 
	278.336,432.944 256,450.864 233.664,432.944 205.376,437.296 195.024,410.608 168.32,400.256 172.688,371.952 154.768,349.632 
	172.688,327.296 168.32,298.992 195.024,288.656 205.376,261.952 233.664,266.304 256,248.4 278.336,266.304 306.624,261.952 
	316.976,288.656 343.68,298.992 339.312,327.296 "/>
<path style="fill:#EF6F6F;" d="M271.424,339.312h-64.816c-4.4,0-8.064-3.648-8.064-8.064l0.096-0.56v-0.096
	c-0.096-4.688,3.744-8.528,8.432-8.528h47.28c5.248,0,9.84-3.84,10.208-9.088c0.192-5.536-4.128-10.112-9.648-10.112H205.28
	c-4.688,0-8.064-3.84-8.064-8.528c0,0,0,0,0-0.096s0-0.096,0-0.096c0-4.592,3.376-8.528,8.064-8.528h41.472
	c5.152,0,9.744-3.84,10.032-8.992c0.288-5.616-4.128-10.128-9.552-10.128H203.6l-8.576,22.144l-26.704,10.352l4.368,28.304
	l-17.92,22.336l17.92,22.336l-4.368,28.304l26.704,10.352l8.576,22.144h50.016c5.248,0,9.84-3.84,10.128-8.992
	c0.288-5.536-4.128-10.128-9.552-10.128h-41.76c-5.536,0-9.936-4.592-9.648-10.112c0.288-5.152,4.96-9.088,10.128-9.088H252.8
	c5.152-0.096,9.28-4.32,9.28-9.552c0-5.248-4.304-9.552-9.552-9.552h-49.072c-4.496,0-8.16-3.648-8.064-8.064v-0.752
	c-0.288-4.304,3.184-8.064,7.584-8.064h67.904c5.248,0,9.84-3.84,10.208-8.992C281.264,343.904,276.944,339.312,271.424,339.312z"/>
<path style="fill:#FFCC5B;" d="M256,413.728c-35.344,0-64.096-28.752-64.096-64.096s28.752-64.096,64.096-64.096
	s64.096,28.752,64.096,64.096S291.344,413.728,256,413.728z"/>
<path style="fill:#FDBC4B;" d="M245.072,292.464c-0.224,4.256,3.184,7.792,7.36,7.792h32.16c4.256,0,7.648,3.536,7.44,7.792
	c-0.224,3.968-3.824,7.008-7.792,7.008h-30.72c-3.968,0.08-7.152,3.328-7.152,7.36c0,4.048,3.328,7.36,7.36,7.36h37.792
	c3.472,0,6.288,2.816,6.208,6.208v0.576c0.224,3.328-2.448,6.208-5.84,6.208h-52.304c-4.048,0-7.584,2.96-7.872,6.928
	c-0.144,4.256,3.168,7.792,7.44,7.792h49.92c3.392,0,6.208,2.816,6.208,6.208l-0.08,0.432v0.064c0.08,3.616-2.88,6.576-6.496,6.576
	h-36.432c-4.048,0-7.584,2.96-7.872,7.008c-0.144,4.256,3.184,7.792,7.44,7.792h38.224c3.616,0,6.208,2.96,6.208,6.576
	c0,0,0,0,0,0.08s0,0.08,0,0.08c0,3.536-2.592,6.56-6.208,6.56h-31.952c-3.968,0-7.504,2.96-7.728,6.928
	c-0.224,4.336,3.168,7.792,7.36,7.792h0.816c34.128-1.376,61.504-29.504,61.504-63.968c0-35.344-28.752-64.096-64.096-64.096
	c-1.472,0-2.912,0.128-4.352,0.224C248.16,286.288,245.264,288.912,245.072,292.464z"/>
<path style="fill:#FFFFFF;" d="M244.368,377.472L244.368,377.472c-2.24,0-4.4-0.896-5.984-2.48l-15.504-15.504
	c-3.296-3.296-3.296-8.656,0-11.952s8.656-3.296,11.952,0l9.52,9.52l32.8-32.8c3.296-3.296,8.656-3.296,11.952,0
	s3.296,8.656,0,11.952l-38.784,38.784C248.752,376.576,246.608,377.472,244.368,377.472z"/>
<g>
</g>
<g>
</g>
<g>
</g>
<g>
</g>
<g>
</g>
<g>
</g>
<g>
</g>
<g>
</g>
<g>
</g>
<g>
</g>
<g>
</g>
<g>
</g>
<g>
</g>
<g>
</g>
<g>
</g>
</svg>
