<?xml version="1.0"?>
<svg xmlns="http://www.w3.org/2000/svg" xmlns:xlink="http://www.w3.org/1999/xlink" version="1.1" id="Capa_1" x="0px" y="0px" viewBox="0 0 480 480" style="enable-background:new 0 0 480 480;" xml:space="preserve" width="512px" height="512px" class=""><g><path style="fill:#194C80" d="M127.04,406.936c3.016,2.528,6.128,4.952,9.312,7.28c0.136,0.104,0.28,0.2,0.424,0.296  c3.096,2.24,6.264,4.392,9.512,6.432c0.088,0.056,0.168,0.112,0.256,0.168c6.768,4.24,13.84,8.04,21.184,11.352  C189.776,442.416,214.232,448,240,448s50.224-5.584,72.28-15.536c7.344-3.312,14.416-7.112,21.184-11.352  c0.088-0.056,0.168-0.112,0.256-0.168c3.24-2.04,6.416-4.192,9.512-6.432c0.136-0.104,0.28-0.2,0.424-0.296  c3.184-2.32,6.296-4.744,9.312-7.28C391.488,374.648,416,326.2,416,272c0-86.272-62.088-157.992-144-173.04  c-5.136-0.944-10.352-1.672-15.624-2.168c-0.176-0.016-0.352-0.024-0.528-0.04C250.624,96.264,245.344,96,240,96  s-10.624,0.264-15.848,0.744c-0.176,0.016-0.352,0.024-0.528,0.04c-5.28,0.504-10.488,1.224-15.624,2.168  C126.088,114.008,64,185.728,64,272C64,326.2,88.512,374.648,127.04,406.936z M240,136c75.112,0,136,60.888,136,136  s-60.888,136-136,136s-136-60.888-136-136S164.888,136,240,136z" data-original="#A9CB73" class="" data-old_color="#A9CB73"/><path style="fill:#374957" d="M224.152,96.744C229.376,96.264,234.656,96,240,96s10.624,0.264,15.848,0.744  c0.176,0.016,0.352,0.024,0.528,0.04c5.28,0.504,10.488,1.224,15.624,2.168V88c0-17.672-14.328-32-32-32s-32,14.328-32,32v10.96  c5.136-0.944,10.352-1.672,15.624-2.168C223.8,96.768,223.976,96.76,224.152,96.744z" data-original="#F4CD57" class="active-path" data-old_color="#F4CD57"/><path style="fill:#EAEAEA;" d="M240,408c75.112,0,136-60.888,136-136s-60.888-136-136-136s-136,60.888-136,136S164.888,408,240,408z   M228.408,282.976c0.824,0.872,1.72,1.664,2.72,2.336C230.128,284.64,229.232,283.84,228.408,282.976z" data-original="#EAEAEA"/><path style="fill:#374957" d="M146.28,420.944c-3.24-2.04-6.416-4.192-9.512-6.432c-0.136-0.104-0.28-0.2-0.424-0.296  c-3.184-2.32-6.296-4.744-9.312-7.28l-17.232,28.72c-9.6,16,1.928,36.352,20.584,36.352h0.024c8.432,0,16.24-4.424,20.576-11.656  l16.728-27.88c-7.344-3.312-14.416-7.104-21.184-11.352C146.448,421.056,146.368,421,146.28,420.944z" data-original="#F4CD57" class="active-path" data-old_color="#F4CD57"/><path style="fill:#EAEAEA;" d="M167.72,432.464c-7.344-3.312-14.416-7.112-21.184-11.352  C153.304,425.36,160.376,429.152,167.72,432.464z" data-original="#EAEAEA"/><path style="fill:#374957" d="M343.232,414.512c-3.096,2.24-6.264,4.392-9.512,6.432c-0.088,0.056-0.168,0.112-0.256,0.168  c-6.768,4.248-13.84,8.04-21.184,11.352l16.728,27.88C333.344,467.576,341.16,472,349.592,472h0.024  c18.656,0,30.176-20.352,20.584-36.352l-17.232-28.72c-3.016,2.528-6.128,4.952-9.312,7.28  C343.512,414.312,343.368,414.408,343.232,414.512z" data-original="#F4CD57" class="active-path" data-old_color="#F4CD57"/><path style="fill:#EAEAEA;" d="M312.28,432.464c7.344-3.312,14.416-7.104,21.184-11.352  C326.696,425.352,319.624,429.152,312.28,432.464z" data-original="#EAEAEA"/><g>
	<path style="fill:#2D2D2D" d="M56,272c0,54.096,23.48,102.808,60.768,136.504l-13.816,23.024   c-6.008,10.016-6.16,22.064-0.408,32.232S118.704,480,130.408,480c11.176,0,21.688-5.952,27.44-15.536l13.16-21.936   C192.336,451.184,215.608,456,240,456s47.664-4.816,68.984-13.472l13.16,21.936c5.752,9.584,16.272,15.536,27.464,15.536   c11.68,0,22.096-6.072,27.848-16.232s5.608-22.216-0.408-32.232l-13.816-23.024C400.52,374.808,424,326.096,424,272   c0-87.72-61.72-161.248-144-179.568V88c0-22.056-17.944-40-40-40s-40,17.944-40,40v4.432C117.72,110.752,56,184.28,56,272z    M156.344,435.872l-12.216,20.36C141.256,461.024,136,464,130.392,464c-5.84,0-11.048-3.032-13.928-8.12   c-2.872-5.08-2.8-11.104,0.2-16.112L129.2,418.88c0.472,0.36,0.992,0.656,1.472,1.008c3.176,2.36,6.456,4.584,9.792,6.736   c1.048,0.672,2.08,1.36,3.144,2.016c3.728,2.304,7.552,4.456,11.44,6.488C155.488,435.368,155.904,435.648,156.344,435.872z    M350.8,418.88l12.536,20.888c3,5.008,3.08,11.032,0.2,16.112c-2.88,5.088-8.088,8.12-13.944,8.12   c-5.592,0-10.848-2.976-13.72-7.768l-12.216-20.36c0.44-0.224,0.856-0.504,1.296-0.736c3.896-2.04,7.72-4.184,11.44-6.488   c1.064-0.656,2.096-1.344,3.144-2.016c3.336-2.152,6.608-4.384,9.792-6.736C349.808,419.536,350.32,419.24,350.8,418.88z M408,272   c0,57.424-28.992,108.16-73.072,138.472c-0.728,0.496-1.456,0.992-2.192,1.48c-3.928,2.608-7.952,5.08-12.096,7.36   c-0.272,0.152-0.528,0.32-0.8,0.464C296.08,432.664,268.88,440,240,440s-56.08-7.336-79.84-20.224   c-0.272-0.144-0.528-0.312-0.8-0.464c-4.144-2.28-8.176-4.752-12.096-7.36c-0.736-0.488-1.464-0.984-2.192-1.48   C100.992,380.16,72,329.424,72,272c0-84.408,62.632-154.272,143.824-166.056c2.744-0.4,5.488-0.872,8.224-1.136   c4.424-0.416,8.904-0.616,13.416-0.68c1.688-0.024,3.368-0.024,5.056,0c4.512,0.064,9,0.264,13.424,0.68   c2.744,0.264,5.48,0.736,8.224,1.136C345.368,117.728,408,187.592,408,272z M216,89.6V88c0-13.232,10.768-24,24-24s24,10.768,24,24   v1.6c-0.224-0.032-0.44-0.04-0.664-0.064c-3.32-0.424-6.664-0.76-10.04-1c-0.688-0.048-1.368-0.112-2.056-0.16   C247.52,88.152,243.776,88,240,88s-7.52,0.152-11.24,0.376c-0.688,0.04-1.368,0.104-2.056,0.16c-3.376,0.24-6.72,0.576-10.04,1   C216.44,89.56,216.224,89.568,216,89.6z" data-original="#2D2D2D" class="" data-old_color="#2D2D2D"/>
	<path style="fill:#2D2D2D" d="M240,128c-79.4,0-144,64.6-144,144s64.6,144,144,144s144-64.6,144-144S319.4,128,240,128z    M248,399.592V384h-16v15.592C167.816,395.6,116.4,344.184,112.408,280H128v-16h-15.592c4-64.184,55.408-115.6,119.592-119.592V160   h16v-15.592c64.184,4,115.6,55.408,119.592,119.592H352v16h15.592C363.6,344.184,312.184,395.6,248,399.592z" data-original="#2D2D2D" class="" data-old_color="#2D2D2D"/>
	<path style="fill:#2D2D2D" d="M408,152h16c0-52.936-43.064-96-96-96v16C372.112,72,408,107.888,408,152z" data-original="#2D2D2D" class="" data-old_color="#2D2D2D"/>
	<path style="fill:#2D2D2D" d="M328,0v16c74.992,0,136,61.008,136,136h16C480,68.184,411.816,0,328,0z" data-original="#2D2D2D" class="" data-old_color="#2D2D2D"/>
	<path style="fill:#2D2D2D" d="M152,72V56c-52.936,0-96,43.064-96,96h16C72,107.888,107.888,72,152,72z" data-original="#2D2D2D" class="" data-old_color="#2D2D2D"/>
	<path style="fill:#2D2D2D" d="M152,16V0C68.184,0,0,68.184,0,152h16C16,77.008,77.008,16,152,16z" data-original="#2D2D2D" class="" data-old_color="#2D2D2D"/>
	<path style="fill:#2D2D2D" d="M248,249.472V184h-16v65.368c-0.272,0.096-0.512,0.24-0.776,0.344   c-0.448,0.176-0.872,0.376-1.304,0.576c-0.896,0.416-1.752,0.88-2.576,1.4c-0.392,0.248-0.784,0.48-1.16,0.744   c-0.952,0.672-1.84,1.416-2.68,2.216c-0.176,0.168-0.376,0.304-0.544,0.48c-0.984,0.992-1.864,2.072-2.664,3.224   c-0.224,0.32-0.4,0.664-0.608,1c-0.544,0.872-1.04,1.768-1.472,2.712c-0.2,0.44-0.384,0.88-0.552,1.328   c-0.36,0.936-0.656,1.896-0.896,2.888c-0.104,0.44-0.232,0.864-0.32,1.312C216.176,269.024,216,270.488,216,272   s0.176,2.992,0.448,4.448c0.088,0.472,0.232,0.92,0.344,1.376c0.248,0.976,0.528,1.928,0.888,2.856   c0.184,0.48,0.4,0.944,0.616,1.408c0.408,0.88,0.872,1.72,1.376,2.536c0.256,0.416,0.512,0.832,0.792,1.232   c0.168,0.24,0.296,0.504,0.472,0.736l-27.768,45.216l13.632,8.376l27.584-44.912c1.824,0.432,3.68,0.728,5.616,0.728   c13.232,0,24-10.768,24-24C264,261.584,257.288,252.784,248,249.472z M240,280c-2.072,0-3.928-0.84-5.352-2.144   c-0.128-0.112-0.272-0.216-0.392-0.336c-0.608-0.64-1.104-1.384-1.48-2.192c-0.08-0.176-0.144-0.368-0.216-0.552   c-0.328-0.872-0.56-1.792-0.56-2.776c0-4.408,3.592-8,8-8c4.408,0,8,3.592,8,8S244.408,280,240,280z" data-original="#2D2D2D" class="" data-old_color="#2D2D2D"/>
</g></g> </svg>
