<?xml version="1.0" encoding="iso-8859-1"?>
<!-- Generator: Adobe Illustrator 19.0.0, SVG Export Plug-In . SVG Version: 6.00 Build 0)  -->
<svg version="1.1" id="Capa_1" xmlns="http://www.w3.org/2000/svg" xmlns:xlink="http://www.w3.org/1999/xlink" x="0px" y="0px"
	 viewBox="0 0 464 464" style="enable-background:new 0 0 464 464;" xml:space="preserve">
<path style="fill:#E6E6E6;" d="M0,24h304v440H0V24z"/>
<path style="fill:#FBB03B;" d="M40,64h136v136H40V64z"/>
<path style="fill:#754C24;" d="M296,280h16v64h-16V280z"/>
<ellipse style="fill:#0071BC;" cx="304" cy="144" rx="160" ry="144"/>
<ellipse style="fill:#29ABE2;" cx="304" cy="144" rx="128" ry="112"/>
<path style="fill:#C69C6D;" d="M328,336v104c0,13.255-10.745,24-24,24l0,0c-13.255,0-24-10.745-24-24l0,0V336H328z"/>
<g>
	<path style="fill:#29ABE2;" d="M32,272h16v24H32V272z"/>
	<path style="fill:#29ABE2;" d="M160,272h16v24h-16V272z"/>
</g>
<path style="fill:#FBB03B;" d="M64,232h16v64H64V232z"/>
<path style="fill:#29ABE2;" d="M96,256h16v40H96V256z"/>
<path style="fill:#FBB03B;" d="M128,240h16v56h-16V240z"/>
<g>
	<path style="fill:#999999;" d="M32,352h216v16H32V352z"/>
	<path style="fill:#999999;" d="M32,384h216v16H32V384z"/>
	<path style="fill:#999999;" d="M32,416h184v16H32V416z"/>
	<path style="fill:#999999;" d="M80,320h168v16H80V320z"/>
	<path style="fill:#999999;" d="M48,320h16v16H48V320z"/>
</g>
<g>
	<path style="fill:#FBB03B;" d="M344,99.056V80h-16v19.056l-24,12l-24-12V80h-16v19.056l-27.576,13.784
		c-2.712,1.355-4.425,4.128-4.424,7.16v32h-16v16h22.112L264,180.944V200h16v-19.056l24-12l24,12V200h16v-19.056l27.576-13.744
		c2.725-1.362,4.441-4.153,4.424-7.2v-32h16v-16h-22.112L344,99.056z M248,124.944l24-12l24,12v30.112l-24,12l-24-12V124.944z
		 M360,155.056l-24,12l-24-12v-30.112l24-12l24,12V155.056z"/>
	<path style="fill:#FBB03B;" d="M376,80h16v16h-16V80z"/>
	<path style="fill:#FBB03B;" d="M216,184h16v16h-16V184z"/>
</g>
<path style="fill:#754C24;" d="M280,424h48l0,0v16c0,13.255-10.745,24-24,24l0,0c-13.255,0-24-10.745-24-24l0,0V424L280,424z"/>
<g>
	<path style="fill:#F15A24;" d="M64,160h16v16H64V160z"/>
	<path style="fill:#F15A24;" d="M96,160h16v16H96V160z"/>
</g>
<g>
</g>
<g>
</g>
<g>
</g>
<g>
</g>
<g>
</g>
<g>
</g>
<g>
</g>
<g>
</g>
<g>
</g>
<g>
</g>
<g>
</g>
<g>
</g>
<g>
</g>
<g>
</g>
<g>
</g>
</svg>
