<?xml version="1.0" encoding="iso-8859-1"?>
<!-- Generator: Adobe Illustrator 19.0.0, SVG Export Plug-In . SVG Version: 6.00 Build 0)  -->
<svg version="1.1" id="Capa_1" xmlns="http://www.w3.org/2000/svg" xmlns:xlink="http://www.w3.org/1999/xlink" x="0px" y="0px"
	 viewBox="0 0 480 480" style="enable-background:new 0 0 480 480;" xml:space="preserve">
<path style="fill:#E6E6E6;" d="M300.029,8l80,80v360c0,13.255-10.745,24-24,24l0,0h-312V8H300.029z"/>
<g>
	<path style="fill:#0071BC;" d="M300.029,8v80h80L300.029,8z"/>
	<path style="fill:#0071BC;" d="M356.029,472c-13.255,0-24-10.745-24-24l0,0v-32h-320v32c0,13.255,10.745,24,24,24l0,0H356.029z"/>
</g>
<path style="fill:#DA4836;" d="M258.557,308.216l-22.624,67.88l67.88-22.624l164.216-164.216L422.773,144L258.557,308.216z"/>
<path style="fill:#F8CF26;" d="M434.06,223.2l-22.628,22.628l-45.255-45.255l22.628-22.628L434.06,223.2z"/>
<path style="fill:#FBB03B;" d="M468.037,189.249l-33.941,33.941l-45.255-45.255l33.941-33.941L468.037,189.249z"/>
<path style="fill:#8C6239;" d="M303.813,353.472l-67.88,22.624l22.624-67.88L303.813,353.472z"/>
<path style="fill:#F7931E;" d="M258.563,308.214l107.645-107.645l22.628,22.628L281.19,330.842L258.563,308.214z"/>
<path d="M36.029,480h320c17.673,0,32-14.327,32-32V280.496l85.6-85.6c3.123-3.124,3.123-8.188,0-11.312l-45.248-45.256
	c-3.122-3.126-8.188-3.129-11.314-0.006c-0.002,0.002-0.004,0.004-0.006,0.006l-29.032,29.032V88c0-0.176-0.088-0.328-0.104-0.504
	c-0.04-0.701-0.177-1.393-0.408-2.056c-0.088-0.256-0.152-0.504-0.264-0.752c-0.387-0.872-0.929-1.666-1.6-2.344l-80-80
	c-0.693-0.678-1.507-1.221-2.4-1.6c-0.232-0.104-0.456-0.168-0.688-0.248c-0.698-0.247-1.428-0.393-2.168-0.432
	C300.317,0.08,300.181,0,300.029,0h-256c-4.418,0-8,3.582-8,8v400h-24c-4.418,0-8,3.582-8,8v32C4.029,465.673,18.356,480,36.029,480
	L36.029,480z M303.909,341.992l-11.312-11.312l96.168-96.176l11.32,11.32L303.909,341.992z M366.133,211.88l11.32,11.32
	l-96.168,96.16l-11.312-11.312L366.133,211.88z M388.765,189.248l33.936,33.952l-11.312,11.304l-33.936-33.936l5.656-5.656
	L388.765,189.248z M262.157,322.848l26.944,26.952l-40.424,13.48L262.157,322.848z M422.701,155.312l33.944,33.944l-22.624,22.632
	l-33.944-33.952L422.701,155.312z M360.717,80h-52.688V27.312L360.717,80z M52.029,16h240v72c0,4.418,3.582,8,8,8h72v87.36
	l-0.232,0.24L253.005,302.4c-0.064,0.056-0.072,0.144-0.128,0.2c-0.807,0.831-1.424,1.827-1.808,2.92l-22.632,67.888
	c-1.392,4.193,0.879,8.721,5.073,10.113c0.813,0.27,1.663,0.407,2.519,0.407c0.86,0.004,1.715-0.137,2.528-0.416l67.872-22.624
	c1.092-0.378,2.086-0.992,2.912-1.8c0.064-0.056,0.152-0.072,0.208-0.128l62.48-62.464V448c0,8.837-7.163,16-16,16s-16-7.163-16-16
	v-32c0-4.418-3.582-8-8-8h-280V16z M20.029,424h304v24c-0.009,5.619,1.474,11.141,4.296,16H36.029c-8.837,0-16-7.163-16-16V424z"/>
<path d="M252.029,112h-16V64h-16v48h-16V48h-16v64h-16V40h-16v72h-16V64h-16v48h-16V80h-16v32h-16v16h176V112z"/>
<path d="M76.029,152h16v16h-16V152z"/>
<path d="M108.029,152h240v16h-240V152z"/>
<path d="M76.029,184h256v16h-256V184z"/>
<path d="M76.029,216h224v16h-224V216z"/>
<path d="M76.029,248h192v16h-192V248z"/>
<path d="M92.029,288h-16v88c0,4.418,3.582,8,8,8h128v-16h-120V288z"/>
<path d="M145.685,314.344c-3.124-3.123-8.188-3.123-11.312,0l-32,32l11.312,11.312l26.344-26.344l18.344,18.344
	c3.124,3.123,8.188,3.123,11.312,0l32-32l-11.312-11.312l-26.344,26.344L145.685,314.344z"/>
<g>
</g>
<g>
</g>
<g>
</g>
<g>
</g>
<g>
</g>
<g>
</g>
<g>
</g>
<g>
</g>
<g>
</g>
<g>
</g>
<g>
</g>
<g>
</g>
<g>
</g>
<g>
</g>
<g>
</g>
</svg>
