<svg id="Capa_1" enable-background="new 0 0 512 512" height="512" viewBox="0 0 512 512" width="512" xmlns="http://www.w3.org/2000/svg"><g><g><circle cx="394.477" cy="91.873" fill="#e28086" r="84.437"/></g><g><path d="m438.659 19.915c7.909 12.854 12.479 27.982 12.479 44.181 0 46.633-37.804 84.437-84.437 84.437-16.199 0-31.327-4.57-44.181-12.479 14.859 24.149 41.524 40.256 71.958 40.256 46.633 0 84.437-37.804 84.437-84.437-.001-30.434-16.108-57.099-40.256-71.958z" fill="#dd636e"/></g><g><circle cx="259.632" cy="245.37" fill="#ffe07d" r="179.393"/></g><g><path d="m369.111 103.26c23.372 30.293 37.283 68.258 37.283 109.478 0 99.076-80.317 179.393-179.393 179.393-41.22 0-79.186-13.912-109.479-37.283 32.804 42.519 84.254 69.915 142.11 69.915 99.076 0 179.393-80.317 179.393-179.393.001-57.857-27.395-109.306-69.914-142.11z" fill="#ffd064"/></g><g><circle cx="259.632" cy="245.37" fill="#f4fbff" r="147.796"/></g><g><path d="m351.709 129.765c20.144 25.258 32.191 57.259 32.191 92.077 0 81.625-66.17 147.796-147.796 147.796-34.819 0-66.819-12.047-92.077-32.191 27.08 33.954 68.798 55.718 115.604 55.718 81.625 0 147.796-66.171 147.796-147.796.001-46.806-21.763-88.524-55.718-115.604z" fill="#e4f6ff"/></g><g><circle cx="117.522" cy="345.825" fill="#80b4fb" r="84.437"/></g><g><path d="m161.704 273.867c7.909 12.854 12.479 27.982 12.479 44.181 0 46.633-37.804 84.437-84.437 84.437-16.199 0-31.327-4.57-44.181-12.479 14.859 24.149 41.524 40.256 71.958 40.256 46.633 0 84.437-37.804 84.437-84.437-.001-30.434-16.108-57.099-40.256-71.958z" fill="#61a2f9"/></g><g><circle cx="216.611" cy="420.127" fill="#b3e59f" r="84.437"/></g><g><path d="m260.792 348.169c7.909 12.854 12.479 27.982 12.479 44.181 0 46.633-37.804 84.437-84.437 84.437-16.199 0-31.327-4.57-44.181-12.479 14.859 24.149 41.524 40.256 71.958 40.256 46.633 0 84.437-37.804 84.437-84.437 0-30.434-16.107-57.098-40.256-71.958z" fill="#95d6a4"/></g><g><path d="m394.478 0c-21.076 0-41.667 7.317-57.98 20.603-14.033 11.429-24.41 26.829-29.755 43.958-15.056-3.926-30.842-6.021-47.11-6.021-103.018 0-186.829 83.811-186.829 186.829 0 6.558.364 13.15 1.043 19.646-28.68 15.563-48.196 45.95-48.196 80.809 0 50.659 41.214 91.873 91.872 91.873 2.947 0 5.895-.155 8.825-.434 8.051 42.498 45.46 74.737 90.264 74.737 48.76 0 88.762-38.183 91.693-86.219 38.041-10.26 72.382-32.702 97.189-63.654 26.418-32.963 40.968-74.429 40.968-116.758 0-24.744-4.847-48.374-13.622-70.007 14.891-6.839 27.642-17.485 37.09-31.059 10.743-15.432 16.421-33.563 16.421-52.43-.001-50.659-41.214-91.873-91.873-91.873zm-276.956 422.825c-42.458 0-77.001-34.543-77.001-77.001s34.543-77 77.001-77c37.167 0 68.767 26.509 75.615 62.475-8.194 2.167-15.941 5.441-23.075 9.651v-7.236c0-12.23-9.95-22.181-22.181-22.181-12.23 0-22.181 9.95-22.181 22.181v23.582c0 7.82 4.016 14.794 10.319 18.76-7.188 13.092-11.282 28.112-11.282 44.072 0 .786.01 1.57.03 2.352-2.404.223-4.825.345-7.245.345zm1.75-177.456c0-77.394 62.965-140.36 140.36-140.36 77.394 0 140.36 62.965 140.36 140.36 0 62.714-41.11 117.237-100.719 134.689-14.911-30.637-46.36-51.803-82.662-51.803-2.981 0-5.928.148-8.837.427-5.889-31.254-27.427-56.531-55.807-68.02-.112-.791-.221-1.583-.315-2.373-.519-4.334-.782-8.729-.782-13.065 0-1.891.05-3.806.15-5.692.215-4.1-2.934-7.6-7.035-7.815-4.113-.232-7.601 2.934-7.816 7.035-.113 2.145-.17 4.322-.17 6.472 0 3.555.161 7.143.469 10.715-5.489-1.154-11.147-1.815-16.927-1.941-.174-2.87-.269-5.759-.269-8.629zm24.955 118.243c-2.216-1.275-3.654-3.637-3.654-6.317v-23.582c0-4.031 3.279-7.309 7.309-7.309 4.031 0 7.309 3.278 7.309 7.309v18.151c-3.985 3.59-7.656 7.52-10.964 11.748zm72.384 133.516c-42.459 0-77.001-34.543-77.001-77.001s34.543-77 77.001-77 77.001 34.543 77.001 77c0 42.459-34.543 77.001-77.001 77.001zm91.362-86.689c-.596-5.665-1.713-11.176-3.295-16.489 29.991-9.109 56.959-27.402 76.588-52.123 21.98-27.682 33.598-61.037 33.598-96.457 0-85.595-69.637-155.231-155.231-155.231-85.595 0-155.232 69.636-155.232 155.231 0 3.153.104 6.327.294 9.483-5.677.797-11.19 2.108-16.487 3.896-.341-4.445-.532-8.92-.532-13.379 0-94.817 77.14-171.957 171.957-171.957s171.957 77.14 171.957 171.957c0 77.14-50.394 143.777-123.617 165.069zm118.731-248.62c-11.182-22.269-26.68-42.008-45.399-58.109l14.754-33.563c1.011-2.299.792-4.954-.58-7.057s-3.715-3.371-6.227-3.371h-26.335c-4.107 0-7.436 3.329-7.436 7.436s3.329 7.436 7.436 7.436h14.943l-8.611 19.587c-14.642-10.645-30.88-19.217-48.285-25.283 9.919-31.668 39.832-54.022 73.512-54.022 42.458 0 77.001 34.543 77.001 77.001.001 30.427-17.427 57.391-44.773 69.945z"/><path d="m425.128 59.206c-11.733 0-21.279 9.546-21.279 21.278v22.138c0 11.734 9.546 21.279 21.279 21.279s21.279-9.546 21.279-21.279v-22.138c0-11.733-9.546-21.278-21.279-21.278zm6.408 43.416c0 3.533-2.875 6.408-6.408 6.408s-6.407-2.875-6.407-6.408v-22.138c0-3.533 2.874-6.407 6.407-6.407s6.408 2.874 6.408 6.407z"/><path d="m305.465 344.024c-3.725 1.73-5.342 6.151-3.612 9.876 1.733 3.763 6.236 5.328 9.876 3.613 8.409-3.905 16.392-8.778 23.727-14.483 3.242-2.521 3.825-7.193 1.304-10.434-2.522-3.243-7.194-3.826-10.434-1.304-6.451 5.017-13.47 9.3-20.861 12.732z"/><path d="m354.37 191.907c2.031 3.609 6.621 4.818 10.131 2.817 3.576-2.02 4.837-6.556 2.817-10.131-4.555-8.065-10.041-15.634-16.305-22.496-2.77-3.033-7.473-3.249-10.505-.478-3.033 2.768-3.248 7.472-.479 10.505 5.511 6.035 10.335 12.692 14.341 19.783z"/><path d="m293.529 142.007c7.742 2.544 15.218 5.978 22.22 10.203 3.459 2.102 8.074 1.021 10.208-2.525 2.122-3.517.991-8.086-2.525-10.209-7.959-4.802-16.458-8.704-25.26-11.597-3.902-1.282-8.103.84-9.386 4.742-1.282 3.901.841 8.104 4.743 9.386z"/><path d="m369.729 283.312c-3.787-1.586-8.146.198-9.731 3.986-3.15 7.519-7.161 14.703-11.921 21.352-2.391 3.339-1.622 7.985 1.718 10.375 3.303 2.374 7.97 1.644 10.374-1.718 5.408-7.554 9.965-15.718 13.545-24.264 1.587-3.787-.197-8.144-3.985-9.731z"/><path d="m365.667 221.178c.838 3.694 1.492 7.486 1.946 11.272.519 4.335.782 8.731.782 13.066 0 3.793-.202 7.625-.599 11.389-.489 4.36 3.021 8.246 7.404 8.218 3.756 0 6.982-2.837 7.385-6.655.452-4.281.682-8.638.682-12.952 0-4.923-.299-9.914-.887-14.834-.514-4.295-1.257-8.6-2.208-12.794-.909-4.004-4.894-6.515-8.896-5.607-4.006.908-6.517 4.891-5.609 8.897z"/><path d="m147.69 213.262c3.764 1.379 8.128-.589 9.508-4.492 2.749-7.672 6.377-15.057 10.784-21.946 2.212-3.459 1.202-8.057-2.258-10.271-3.46-2.215-8.058-1.203-10.271 2.258-5.008 7.829-9.131 16.221-12.256 24.944-1.384 3.866.627 8.123 4.493 9.507z"/><path d="m236.773 138.884c.482 0 .971-.046 1.462-.144 2.789-.557 5.642-1.011 8.477-1.351 5.288-.633 10.644-.881 15.904-.746 4.067.126 7.519-3.134 7.626-7.24.106-4.105-3.136-7.519-7.241-7.626-5.97-.158-12.055.127-18.057.845-3.217.385-6.453.901-9.617 1.532-4.027.804-6.641 4.719-5.838 8.747.704 3.537 3.81 5.983 7.284 5.983z"/><path d="m183.659 164.888c1.724 0 3.457-.596 4.864-1.814 6.177-5.347 12.957-9.995 20.153-13.813 3.628-1.925 5.008-6.426 3.083-10.054s-6.427-5.009-10.053-3.083c-8.184 4.342-15.895 9.627-22.917 15.707-3.105 2.688-3.442 7.384-.754 10.489 1.469 1.698 3.541 2.568 5.624 2.568z"/><path d="m232.634 311.352c.94.394 1.915.581 2.875.581 2.905 0 5.664-1.714 6.859-4.56l49.853-118.79c1.589-3.787-.192-8.145-3.979-9.734-3.789-1.588-8.145.194-9.734 3.979l-49.853 118.79c-1.589 3.787.192 8.144 3.979 9.734z"/><path d="m196.504 205.767c0 18.215 13.217 33.033 29.464 33.033s29.464-14.818 29.464-33.033-13.217-33.033-29.464-33.033-29.464 14.818-29.464 33.033zm29.464-18.162c8.046 0 14.592 8.147 14.592 18.162 0 10.014-6.546 18.162-14.592 18.162s-14.592-8.147-14.592-18.162c-.001-10.014 6.545-18.162 14.592-18.162z"/><path d="m322.761 286.985c0-18.215-13.217-33.033-29.463-33.033s-29.464 14.818-29.464 33.033 13.217 33.033 29.464 33.033c16.245.001 29.463-14.818 29.463-33.033zm-29.464 18.162c-8.046 0-14.592-8.147-14.592-18.162s6.546-18.162 14.592-18.162 14.592 8.147 14.592 18.162-6.546 18.162-14.592 18.162z"/><path d="m72.498 343.788h-9.978c-4.107 0-7.436 3.329-7.436 7.436s3.329 7.436 7.436 7.436h9.979c4.107 0 7.436-3.329 7.436-7.436-.001-4.107-3.33-7.436-7.437-7.436z"/><path d="m101.991 312.574h-10.899c-4.107 0-7.436 3.329-7.436 7.436s3.329 7.436 7.436 7.436h3.463v43.554c0 4.107 3.329 7.436 7.436 7.436s7.436-3.329 7.436-7.436v-50.99c0-4.107-3.329-7.436-7.436-7.436z"/><path d="m215.442 436.984c-.031 0-.064 0-.095.001-3.378.042-6.913.075-10.187.093 2.375-3.231 5.347-7.353 9.018-12.598 3.983-5.923 6.31-10.487 6.669-16.507 0-10.855-8.831-19.686-19.685-19.686-9.385 0-17.509 6.678-19.316 15.879-.792 4.03 1.833 7.937 5.863 8.729 4.025.792 7.937-1.834 8.729-5.863.441-2.244 2.427-3.873 4.723-3.873 2.768-.027 5.235 2.538 4.691 5.299-.404 1.524-1.407 3.991-3.86 7.495-7.557 10.797-12.066 16.702-14.488 19.872-3.116 4.08-4.996 6.542-3.767 10.539.726 2.36 2.578 4.243 4.961 5.037.991.33 19.926.541 26.834.454 4.106-.051 7.393-3.422 7.342-7.528-.05-4.075-3.369-7.343-7.432-7.343z"/><path d="m253.039 388.012c-11.733 0-21.279 9.546-21.279 21.279v22.138c0 11.733 9.546 21.278 21.279 21.278s21.279-9.546 21.279-21.278v-22.138c0-11.734-9.545-21.279-21.279-21.279zm6.408 43.417c0 3.533-2.874 6.407-6.407 6.407s-6.407-2.874-6.407-6.407v-22.138c0-3.533 2.874-6.408 6.407-6.408s6.407 2.875 6.407 6.408z"/><path d="m171.582 415.885h-9.979c-4.107 0-7.436 3.329-7.436 7.436s3.329 7.436 7.436 7.436h9.979c4.107 0 7.436-3.329 7.436-7.436s-3.33-7.436-7.436-7.436z"/></g></g></svg>