<?xml version="1.0"?>
<svg xmlns="http://www.w3.org/2000/svg" xmlns:xlink="http://www.w3.org/1999/xlink" version="1.1" id="Capa_1" x="0px" y="0px" viewBox="0 0 512 512" style="enable-background:new 0 0 512 512;" xml:space="preserve" width="512px" height="512px"><g><path style="fill:#5F7D95" d="M256,8L256,8C119.2,8,8,119.2,8,256l0,0c0,136.8,111.2,248,248,248l0,0c136.8,0,248-111.2,248-248  l0,0C504,119.2,392.8,8,256,8z" data-original="#F16051" class="active-path" data-old_color="#F16051"/><path style="fill:#FFFFFF;" d="M256,437.6C156,437.6,74.4,356,74.4,256S156,74.4,256,74.4S437.6,156,437.6,256S356,437.6,256,437.6z  " data-original="#FFFFFF"/><g>
	
		<rect x="96.364" y="399.846" transform="matrix(-0.7072 -0.707 0.707 -0.7072 -110.18 770.0632)" style="fill:#193651;" width="16" height="16" data-original="#193651"/>
	
		<rect x="400.079" y="96.204" transform="matrix(0.7071 0.7071 -0.7071 0.7071 193.207 -258.0351)" style="fill:#193651;" width="16" height="16" data-original="#193651"/>
	
		<rect x="400.034" y="399.85" transform="matrix(0.7071 -0.7071 0.7071 0.7071 -168.8832 407.9803)" style="fill:#193651;" width="16" height="16" data-original="#193651"/>
	
		<rect x="96.162" y="96.372" transform="matrix(-0.7071 -0.7071 0.7071 -0.7071 104.013 251.8267)" style="fill:#193651;" width="16" height="16" data-original="#193651"/>
</g><path style="fill:#4FBF9F;" d="M226.4,320.8v-19.2c0-18.4-14.4-32.8-32.8-32.8h-3.2C184,275.2,176.8,280,168,280  c-8,0-16-4-22.4-11.2h-4c-18.4,0-32.8,15.2-32.8,32.8v19.2H226.4z" data-original="#4FBF9F"/><path style="fill:#5F7D95" d="M195.2,231.2c0,0,0.8-4,4.8-7.2v-17.6c0,0,0-8-8.8-9.6c0,0,3.2-5.6-4.8-8.8h-32c0,0-17.6,0.8-20,18.4  V224c0,0,4,1.6,4.8,8.8v-15.2c0,0,2.4-8.8,9.6-8.8c0,0,12.8,1.6,22.4-4.8c0,0,9.6,3.2,10.4,3.2c0,0,12,2.4,11.2,14.4L195.2,231.2z" data-original="#F16051" class="active-path" data-old_color="#F16051"/><path style="fill:#FDBF5E;" d="M183.2,207.2c-0.8,0-10.4-3.2-10.4-3.2c-9.6,6.4-22.4,4.8-22.4,4.8c-8,0-9.6,8.8-9.6,8.8v15.2  c0,0,0,0,0-0.8c1.6,15.2,12.8,33.6,27.2,33.6c15.2,0,27.2-20,27.2-35.2v-8C195.2,209.6,183.2,207.2,183.2,207.2z" data-original="#FDBF5E"/><path style="fill:#4FBF9F;" d="M403.2,320.8v-19.2c0-18.4-14.4-32.8-32.8-32.8h-3.2c-6.4,6.4-13.6,11.2-22.4,11.2  c-8,0-16-4-22.4-11.2h-4c-18.4,0-32.8,15.2-32.8,32.8v19.2H403.2z" data-original="#4FBF9F"/><path style="fill:#5F7D95" d="M372,231.2c0,0,0.8-4,4.8-7.2v-17.6c0,0,0-8-8.8-9.6c0,0,3.2-5.6-4.8-8.8h-32c0,0-17.6,0.8-20,18.4  V224c0,0,4,1.6,4.8,8.8v-15.2c0,0,2.4-8.8,9.6-8.8c0,0,12.8,1.6,22.4-4.8c0,0,9.6,3.2,10.4,3.2c0,0,12,2.4,11.2,14.4L372,231.2z" data-original="#F16051" class="active-path" data-old_color="#F16051"/><path style="fill:#FDBF5E;" d="M360,207.2c-0.8,0-10.4-3.2-10.4-3.2c-9.6,6.4-22.4,4.8-22.4,4.8c-8,0-9.6,8.8-9.6,8.8v15.2  c0,0,0,0,0-0.8c1.6,15.2,12.8,33.6,27.2,33.6c15.2,0,27.2-20,27.2-35.2v-8C372,209.6,360,207.2,360,207.2z" data-original="#FDBF5E"/><path style="fill:#D3D7DA" d="M320.8,301.6V280c0-20-16-36.8-36-36.8h-4c-6.4,8-15.2,12.8-24.8,12.8s-17.6-4.8-24.8-12h-4  c-20,0-36,16.8-36,36.8v20.8L320.8,301.6L320.8,301.6z" data-original="#D3D7DA" class="" data-old_color="#D3D7DA"/><path style="fill:#5F7D95" d="M286.4,201.6c0,0,1.6-4,5.6-8v-20c0,0,0-8.8-9.6-11.2c0,0,4-6.4-4.8-9.6h-35.2c0,0-20,0.8-21.6,20.8  v20c0,0,4.8,2.4,5.6,9.6v-16.8c0,0,2.4-9.6,11.2-9.6c0,0,14.4,1.6,25.6-4.8c0,0,10.4,4,12,4c0,0,13.6,2.4,12.8,16L286.4,201.6z" data-original="#F16051" class="active-path" data-old_color="#F16051"/><path style="fill:#FDBF5E;" d="M273.6,176c-1.6,0-12-4-12-4c-11.2,7.2-25.6,4.8-25.6,4.8c-8.8,0-11.2,9.6-11.2,9.6v16.8  c0,0,0,0,0-0.8C227.2,220,240,240,256,240c16.8,0,30.4-22.4,30.4-39.2v-9.6C287.2,178.4,273.6,176,273.6,176z" data-original="#FDBF5E"/><path style="fill:#193651;" d="M256,0C115.2,0,0,115.2,0,256s115.2,256,256,256s256-115.2,256-256S396.8,0,256,0z M264,496v-74.4  h-16V496C122.4,492,20,389.6,16,264h74.4v-16H16C20,122.4,122.4,20,248,16v74.4h16V16c125.6,4,228,105.6,232,232h-74.4v16H496  C492,389.6,389.6,492,264,496z" data-original="#193651"/></g> </svg>
