<svg id="Capa_1" data-name="Capa 1" xmlns="http://www.w3.org/2000/svg" viewBox="0 0 512 512"><defs><style>.cls-1{fill:#f5f7fa;}.cls-2{fill:#183651;}.cls-3{fill:#85d3c1;}.cls-4{fill:#fff;}.cls-5{fill:#ff958a;}.cls-6{fill:#f9d48a;}</style></defs><title>target</title><circle class="cls-1" cx="255.6" cy="255.6" r="254.8"/><rect class="cls-2" x="11.98" y="9.58" width="15.98" height="15.98"/><rect class="cls-2" x="11.98" y="54.32" width="15.98" height="15.98"/><rect class="cls-2" x="11.98" y="98.25" width="15.98" height="15.98"/><rect class="cls-2" x="11.98" y="142.98" width="15.98" height="15.98"/><rect class="cls-2" x="11.98" y="187.71" width="15.98" height="15.98"/><rect class="cls-2" x="11.98" y="231.64" width="15.98" height="15.98"/><rect class="cls-2" x="11.98" y="276.37" width="15.98" height="15.98"/><rect class="cls-2" x="11.98" y="321.1" width="15.98" height="15.98"/><rect class="cls-2" x="326.69" y="9.58" width="15.98" height="15.98"/><rect class="cls-2" x="281.96" y="9.58" width="15.98" height="15.98"/><rect class="cls-2" x="238.03" y="9.58" width="15.98" height="15.98"/><rect class="cls-2" x="193.3" y="9.58" width="15.98" height="15.98"/><rect class="cls-2" x="148.57" y="9.58" width="15.98" height="15.98"/><rect class="cls-2" x="104.64" y="9.58" width="15.98" height="15.98"/><rect class="cls-2" x="59.91" y="9.58" width="15.98" height="15.98"/><path class="cls-3" d="M360.24,350.65H151V244.42a70.4,70.4,0,0,1,70.29-70.29h70.29a70.39,70.39,0,0,1,70.29,70.29V350.65Z"/><path class="cls-2" d="M360.24,358.64H151c-4.79,0-8-3.2-8-8V244.42a78.4,78.4,0,0,1,78.27-78.28h70.29a78.4,78.4,0,0,1,78.28,78.28V350.65C368.22,354.65,365,358.64,360.24,358.64ZM159,342.66h194.1V244.42a62.38,62.38,0,0,0-62.3-62.3H220.46a62.38,62.38,0,0,0-62.31,62.3v98.24Z"/><path class="cls-4" d="M182.91,318.7V244.42a38.35,38.35,0,0,1,38.34-38.34h70.29a38.34,38.34,0,0,1,38.34,38.34V318.7Z"/><polygon class="cls-4" points="290.75 174.13 220.46 174.13 255.6 246.81 290.75 174.13"/><path id="SVGCleanerId_0" data-name="SVGCleanerId 0" class="cls-2" d="M255.6,254.8q-4.78,0-7.19-4.79l-35.14-72.69a9.42,9.42,0,0,1,.8-8c1.6-2.4,4-4,6.39-4h70.29c2.39,0,5.59,1.6,6.39,4a9.42,9.42,0,0,1,.8,8L262.79,250C261.19,253.2,258.8,254.8,255.6,254.8Zm-22.36-72.68,22.36,46.32L278,182.12Z"/><polygon class="cls-4" points="290.75 174.13 220.46 174.13 255.6 246.81 290.75 174.13"/><path id="SVGCleanerId_0-2" data-name="SVGCleanerId 0" class="cls-2" d="M255.6,254.8q-4.78,0-7.19-4.79l-35.14-72.69a9.42,9.42,0,0,1,.8-8c1.6-2.4,4-4,6.39-4h70.29c2.39,0,5.59,1.6,6.39,4a9.42,9.42,0,0,1,.8,8L262.79,250C261.19,253.2,258.8,254.8,255.6,254.8Zm-22.36-72.68,22.36,46.32L278,182.12Z"/><circle class="cls-4" cx="255.6" cy="115.82" r="58.31"/><path class="cls-2" d="M255.6,182.12a66.3,66.3,0,1,1,66.3-66.3A66.13,66.13,0,0,1,255.6,182.12Zm0-116.62a50.32,50.32,0,1,0,50.32,50.32A50.11,50.11,0,0,0,255.6,65.5Z"/><rect class="cls-4" x="111.03" y="350.65" width="289.15" height="39.14"/><path class="cls-2" d="M400.17,397.78H111a7.55,7.55,0,0,1-8-8V350.65a7.55,7.55,0,0,1,8-8H400.17a7.55,7.55,0,0,1,8,8v39.14A8,8,0,0,1,400.17,397.78ZM119,381.8H392.19V358.64H119Z"/><path class="cls-2" d="M255.6,512a7.55,7.55,0,0,1-8-8V389.79a8,8,0,1,1,16,0V504A7.55,7.55,0,0,1,255.6,512Z"/><path class="cls-4" d="M434.52,8.79a68.68,68.68,0,0,0-68.69,68.69A72.5,72.5,0,0,0,372.22,107l-10.39,43.14L405,139.78a72.5,72.5,0,0,0,29.55,6.39,68.68,68.68,0,0,0,68.69-68.69C502.41,39.14,472.06,8.79,434.52,8.79Z"/><path class="cls-2" d="M356.24,155c-1.59-1.6-2.39-4.79-2.39-7.19L364.23,107a79.56,79.56,0,0,1-6.39-30.35,76.68,76.68,0,1,1,76.68,76.68A79.56,79.56,0,0,1,404.17,147l-40.74,10.38A6.45,6.45,0,0,1,356.24,155ZM434.52,16.77a60.67,60.67,0,0,0-60.7,60.71A56.71,56.71,0,0,0,379.41,103c.8,1.6.8,3.19.8,5.59L373,139l30.35-7.19c1.6-.79,4,0,5.59.8a56.75,56.75,0,0,0,25.56,5.6,60.68,60.68,0,0,0,60.71-60.71C494.43,43.93,467.27,16.77,434.52,16.77Z"/><path class="cls-5" d="M369.82,99.84A28.2,28.2,0,0,0,373,107l-10.39,43.14,43.14-10.39a72.66,72.66,0,0,0,29.55,6.39c29.55,0,55.11-19.17,64.7-45.53"/><path class="cls-2" d="M356.24,155c-1.59-1.6-2.39-4.79-2.39-7.19L364.23,107a11.29,11.29,0,0,1-1.6-4.79c-1.59-4,.8-8.79,4.8-10.38s8.78.8,10.38,4.79c.8,2.4,1.6,4,2.4,6.39.8,1.6.8,3.19.8,5.59L373.82,139l30.35-7.19c1.6-.79,4,0,5.59.8a56.72,56.72,0,0,0,25.56,5.6c25.56,0,48.72-16,56.71-40.74,1.6-4,6.39-6.39,10.39-4.79s6.39,6.39,4.79,10.38c-10.39,30.35-39.94,51.12-71.89,51.12A79.56,79.56,0,0,1,405,147.77l-41.54,9.58A6.45,6.45,0,0,1,356.24,155Z"/><path class="cls-5" d="M497.62,52.72a68,68,0,0,0-63.9-43.93c-28.75,0-53.51,18.37-63.9,43.93"/><path class="cls-2" d="M497.62,60.71c-3.19,0-6.39-1.6-7.19-4.8a59.94,59.94,0,0,0-111.82,0c-1.6,4-6.39,6.39-10.38,4.8-4.8-2.4-6.4-7.19-4.8-11.19C374.62,20,402.57.8,434.52.8S494.43,20,505.61,49.52c1.6,4-.8,8.79-4.79,10.39C500,59.91,499.22,60.71,497.62,60.71Z"/><circle class="cls-2" cx="404.17" cy="76.68" r="9.58"/><circle class="cls-2" cx="434.52" cy="76.68" r="9.58"/><circle class="cls-2" cx="465.67" cy="76.68" r="9.58"/><circle class="cls-4" cx="441.71" cy="404.17" r="30.35"/><path class="cls-2" d="M441.71,442.51c-20.77,0-38.34-17.57-38.34-38.34s17.57-38.34,38.34-38.34,38.34,17.57,38.34,38.34C479.25,424.94,462.48,442.51,441.71,442.51Zm0-60.71c-12,0-22.36,10.39-22.36,22.37s10.38,22.36,22.36,22.36,22.36-10.38,22.36-22.36C463.28,391.39,453.69,381.8,441.71,381.8Z"/><path class="cls-6" d="M441.71,434.52c-34.35,0-62.3,35.94-62.3,69.49h123.8C503.21,469.67,475.26,434.52,441.71,434.52Z"/><path class="cls-2" d="M503.21,512H379.41a7.55,7.55,0,0,1-8-8c0-36.74,29.55-77.48,70.29-77.48S512,467.27,512,504C511.2,508.8,508,512,503.21,512Zm-115-16h107c-4-26.35-25.56-53.51-53.52-53.51S391.39,469.67,388.19,496Z"/><circle class="cls-4" cx="317.9" cy="404.17" r="30.35"/><path class="cls-2" d="M317.9,442.51c-20.76,0-38.34-17.57-38.34-38.34s17.58-38.34,38.34-38.34,38.34,17.57,38.34,38.34C355.44,424.94,338.67,442.51,317.9,442.51Zm0-60.71c-12,0-22.36,10.39-22.36,22.37s10.38,22.36,22.36,22.36,22.37-10.38,22.37-22.36C339.47,391.39,329.88,381.8,317.9,381.8Z"/><path class="cls-6" d="M317.9,434.52c-34.34,0-62.3,35.94-62.3,69.49H379.41C379.41,469.67,351.45,434.52,317.9,434.52Z"/><path class="cls-2" d="M379.41,512H255.6a7.55,7.55,0,0,1-8-8c0-36.74,29.56-77.48,70.29-77.48s70.29,40.74,70.29,77.48C387.39,508.8,384.2,512,379.41,512Zm-115-16h107c-4-26.35-25.56-53.51-53.52-53.51S267.58,469.67,264.39,496Z"/><circle class="cls-4" cx="194.1" cy="404.17" r="30.35"/><path class="cls-2" d="M194.1,442.51c-20.77,0-38.34-17.57-38.34-38.34s17.57-38.34,38.34-38.34,38.34,17.57,38.34,38.34C231.64,424.94,214.86,442.51,194.1,442.51Zm0-60.71c-12,0-22.37,10.39-22.37,22.37s10.39,22.36,22.37,22.36,22.36-10.38,22.36-22.36C215.66,391.39,206.08,381.8,194.1,381.8Z"/><path class="cls-6" d="M194.1,434.52c-34.35,0-62.31,35.94-62.31,69.49H255.6C255.6,469.67,227.64,434.52,194.1,434.52Z"/><path class="cls-2" d="M255.6,512H131.79c-4.79,0-8-3.2-8-8,0-36.74,29.55-77.48,70.29-77.48s70.29,40.74,70.29,77.48C263.59,508.8,260.39,512,255.6,512Zm-115-16h107c-4-26.35-25.56-53.51-53.51-53.51S143.78,469.67,140.58,496Z"/><circle class="cls-4" cx="70.29" cy="404.17" r="30.35"/><path class="cls-2" d="M70.29,442.51C49.52,442.51,32,424.94,32,404.17s17.57-38.34,38.34-38.34,38.34,17.57,38.34,38.34C107.83,424.94,91.06,442.51,70.29,442.51Zm0-60.71c-12,0-22.36,10.39-22.36,22.37s10.38,22.36,22.36,22.36,22.36-10.38,22.36-22.36C91.86,391.39,82.27,381.8,70.29,381.8Z"/><path class="cls-6" d="M70.29,434.52C35.94,434.52,8,470.46,8,504h123.8C131.79,469.67,103.84,434.52,70.29,434.52Z"/><path class="cls-2" d="M131.79,512H8a7.55,7.55,0,0,1-8-8c0-36.74,29.55-77.48,70.29-77.48s70.29,40.74,70.29,77.48C139.78,508.8,136.59,512,131.79,512Zm-115-16h107c-4-26.35-25.56-53.51-53.52-53.51S20,469.67,16.77,496Z"/></svg>