<svg id="Capa_1" enable-background="new 0 0 512 512" height="512" viewBox="0 0 512 512" width="512" xmlns="http://www.w3.org/2000/svg"><g><g><g><path d="m183.354 213.08 100.56 130.56c36.454-44.197 79.279-120.536 129.402-166.682 19.044-17.533 37.948-33.939 56.567-49.287l-85.56-85.56c-15.416 18.976-32.008 38.288-49.859 57.757-46.009 50.181-107.268 77.567-151.11 113.212z" fill="#c17d4f"/><path d="m384.323 42.111c-4.425 5.446-8.958 10.923-13.579 16.421l15.403 15.403c28.575 28.575 27.485 75.142-2.26 102.497-.19.175-.381.35-.571.526-43.389 39.947-81.305 102.503-114.358 147.265l14.956 19.417c36.454-44.197 79.279-120.536 129.402-166.682 19.044-17.533 37.948-33.939 56.567-49.287z" fill="#b16e3d"/><path d="m380.434 38.222 93.338 93.338c7.029 7.029 18.426 7.029 25.456 0 7.029-7.029 7.029-18.426 0-25.456l-93.338-93.338c-7.029-7.029-18.426-7.029-25.456 0-7.029 7.03-7.029 18.427 0 25.456z" fill="#c17d4f"/></g><g><path d="m295.031 90.783c3.293.919 5.887 3.512 6.806 6.806 11.277 40.411 1.03 85.567-30.751 117.349-33.157 33.157-80.872 42.875-122.569 29.165-13.71-41.697-3.992-89.412 29.165-122.569 31.781-31.782 76.937-42.028 117.349-30.751z" fill="#b3e59f"/><path d="m301.836 97.588c-.921-3.3-3.526-5.891-6.826-6.811-15.447-4.307-31.585-5.459-47.405-3.477.077.01.153.019.23.029 14.433 1.831 25.731 13.387 27.518 27.825 4.392 35.481-7.028 72.544-34.267 99.783-19.622 19.622-44.343 31.031-69.897 34.238 35.516 4.431 72.629-6.969 99.897-34.238 31.781-31.781 42.027-76.938 30.75-117.349z" fill="#95d6a4"/></g><g><path d="m18.737 90.783c-3.293.919-5.887 3.512-6.806 6.806-11.277 40.411-1.03 85.567 30.751 117.348 33.157 33.157 80.872 42.875 122.569 29.165 13.71-41.697 3.992-89.412-29.165-122.569-31.782-31.781-76.938-42.027-117.349-30.75z" fill="#b3e59f"/><path d="m136.085 121.534c-27.275-27.275-64.399-38.674-99.922-34.234 25.563 3.203 50.295 14.605 69.923 34.234 33.157 33.157 42.875 80.872 29.165 122.569-7.405 2.435-15.002 4.116-22.672 5.072 17.627 2.212 35.651.524 52.672-5.072 13.709-41.697 3.991-89.413-29.166-122.569z" fill="#95d6a4"/></g><path d="m200.5 504.494h111c16.569 0 30-13.431 30-30v-24h-171v24c0 16.569 13.431 30 30 30z" fill="#655e67"/><path d="m311.5 450.494v24c0 16.568-13.431 30-30 30h30c16.569 0 30-13.432 30-30v-24z" fill="#544f56"/><path d="m205 465.494h102c96.65 0 175-78.35 175-175v-39h-452v39c0 96.65 78.35 175 175 175z" fill="#c7c2c9"/><path d="m452 251.494v39c0 96.65-78.35 175-175 175h30c96.65 0 175-78.35 175-175v-39z" fill="#a199a4"/><path d="m30.5 266.494h451c12.703 0 23-10.297 23-23 0-12.703-10.297-23-23-23h-451c-12.703 0-23 10.297-23 23 0 12.703 10.297 23 23 23z" fill="#655e67"/><path d="m481.5 220.494h-30c12.703 0 23 10.297 23 23 0 12.703-10.297 23-23 23h30c12.703 0 23-10.297 23-23 0-12.703-10.297-23-23-23z" fill="#544f56"/></g><path d="m481.5 212.994h-91.976c10.087-11.928 19.609-21.99 28.876-30.522 16.62-15.302 33.766-30.308 51.04-44.688 9.812 8.933 25.638 8.53 35.09-.92 9.808-9.806 9.785-26.375.001-36.062l-93.338-93.339c-9.943-9.942-26.12-9.942-36.063 0-9.635 9.636-9.932 25.129-.891 35.125-14.547 17.71-29.761 35.25-45.308 52.208-5.16 5.628-10.633 11.097-16.542 16.527-.775-5.279-1.872-10.543-3.327-15.759-1.617-5.784-6.22-10.384-12.016-12.004-43.937-12.266-91.405-.042-123.888 31.895-2.954 2.904-2.994 7.653-.09 10.606 2.904 2.954 7.654 2.993 10.605.09 28.665-28.185 70.56-38.97 109.336-28.145.765.213 1.395.84 1.604 1.591 11.422 40.852-1.172 84.804-32.359 113.396h-69.592l54.935-51.509c3.021-2.833 3.175-7.58.341-10.601-2.831-3.021-7.577-3.175-10.601-.341l-58.573 54.919c-.211-33.389-13.394-65.244-37.374-89.232-32.544-32.533-80.314-45.049-124.666-32.67-5.796 1.616-10.401 6.216-12.021 12.008-11.492 41.181-1.519 85.287 25.988 117.426h-.191c-16.817 0-30.5 13.682-30.5 30.5 0 14.05 9.552 25.904 22.5 29.428v17.572c0 86.181 60.048 158.593 140.5 177.614v6.386c0 20.678 16.822 37.5 37.5 37.5h111c20.678 0 37.5-16.822 37.5-37.5v-6.348c39.574-9.281 75.096-31.6 101.049-64.312 2.574-3.245 2.03-7.962-1.215-10.537-3.245-2.576-7.963-2.031-10.537 1.214-24.944 31.442-59.517 52.431-97.908 60.164-.235.035-.466.08-.693.136-10.65 2.098-21.589 3.183-32.696 3.183h-102c-92.359 0-167.5-75.14-167.5-167.5v-16.5h437v16.5c0 26.767-6.122 52.34-18.196 76.007-1.883 3.689-.417 8.207 3.272 10.089 3.625 1.849 8.183.463 10.089-3.272 13.161-25.798 19.835-53.665 19.835-82.824v-17.572c12.948-3.524 22.5-15.378 22.5-29.428 0-16.817-13.683-30.499-30.5-30.499zm-303.5 258c8.813 1.312 17.827 2 27 2h102c9.124 0 18.141-.68 27-1.988v3.488c0 12.407-10.094 22.5-22.5 22.5h-111c-12.406 0-22.5-10.093-22.5-22.5zm207.736-452.924c4.095-4.094 10.757-4.094 14.85 0l93.339 93.339c4.041 4.001 4.039 10.811-.001 14.849-4.042 4.04-10.847 4.042-14.848 0l-93.339-93.338c-4.094-4.095-4.093-10.757-.001-14.85zm-71.994 112.082c9.696-8.293 18.316-16.568 26.247-25.219 15.389-16.787 30.46-34.135 44.889-51.66l73.883 73.882c-17.099 14.264-34.065 29.131-50.52 44.281-12.16 11.196-24.667 24.817-38.16 41.558h-87.004c19.88-23.231 30.595-52.717 30.665-82.842zm-294.59-30.549c.215-.768.829-1.379 1.604-1.596 39.146-10.928 81.311.119 110.028 28.829 22.929 22.937 34.682 54.025 32.795 86.158h-20.544l-66.605-62.451c-3.023-2.834-7.77-2.68-10.602.341-2.833 3.021-2.68 7.768.342 10.601l54.936 51.509h-69.593c-31.185-28.573-43.769-72.604-32.361-113.391zm462.348 159.391h-451c-8.547 0-15.5-6.953-15.5-15.5s6.953-15.5 15.5-15.5h451c8.547 0 15.5 6.953 15.5 15.5s-6.953 15.5-15.5 15.5zm-403.109 46.617c-.488-4.114-4.223-7.052-8.331-6.564-4.113.488-7.053 4.218-6.565 8.331 8.491 71.613 69.325 125.616 141.505 125.616 4.143 0 7.5-3.358 7.5-7.5s-3.357-7.5-7.5-7.5c-64.582 0-119.013-48.314-126.609-112.383z"/></g></svg>