<svg height="496pt" viewBox="0 0 496 496" width="496pt" xmlns="http://www.w3.org/2000/svg"><path d="m488 248c0 132.546875-107.453125 240-240 240s-240-107.453125-240-240 107.453125-240 240-240 240 107.453125 240 240zm0 0" fill="#85d3c1"/><path d="m370.878906 336h-101.757812c4.558594-11.359375 9.679687-22 15.117187-32h71.523438c5.519531 10 10.636719 20.640625 15.117187 32zm0 0" fill="#f5f7fa"/><path d="m381.519531 368h-122.960937c2.960937-11.441406 6.5625-22 10.5625-32h101.757812c4.082032 10 7.601563 20.558594 10.640625 32zm0 0" fill="#ff958a"/><path d="m355.761719 304h-71.523438c10.960938-20.160156 23.363281-38.078125 35.839844-56 12.320313 18 24.800781 35.921875 35.683594 56zm0 0" fill="#ff958a"/><path d="m388 400h-136c1.679688-11.359375 3.921875-22 6.558594-32h122.960937c2.640625 10 4.800781 20.640625 6.480469 32zm0 0" fill="#f5f7fa"/><path d="m391.28125 432h-142.5625c.640625-11.28125 1.679688-21.921875 3.28125-32h136c1.519531 10.078125 2.640625 20.71875 3.28125 32zm0 0" fill="#ff958a"/><path d="m391.28125 64h.078125c-.640625 11.359375-1.757813 22-3.28125 32h-136.078125c-1.601562-10.078125-2.640625-20.71875-3.28125-32zm0 0" fill="#ff958a"/><path d="m355.761719 192 .078125.078125c-10.960938 20.082031-23.359375 38-35.761719 55.921875-12.476563-17.921875-24.957031-35.921875-35.839844-56zm0 0" fill="#ff958a"/><path d="m370.878906 160h.082032c-4.5625 11.441406-9.679688 22-15.121094 32.078125l-.078125-.078125h-71.523438c-5.519531-10-10.636719-20.640625-15.117187-32zm0 0" fill="#f5f7fa"/><path d="m381.441406 128h.078125c-2.960937 11.441406-6.558593 22-10.558593 32h-101.839844c-4.082032-10-7.601563-20.640625-10.640625-32zm0 0" fill="#ff958a"/><path d="m388 96h.078125c-1.679687 11.359375-3.917969 22-6.558594 32h-123.039062c-2.640625-10-4.800781-20.640625-6.480469-32zm0 0" fill="#f5f7fa"/><path d="m170.160156 25.761719c-1.601562-1.042969-3.28125-2.082031-4.960937-3.042969-15.519531-9.359375-33.757813-14.71875-53.199219-14.71875-57.441406 0-104 46.558594-104 104 0 14.398438 2.878906 28 8.160156 40.480469 1.917969 4.398437 4.078125 8.640625 6.558594 12.71875 18.082031 30.402343 51.28125 50.800781 89.28125 50.800781 57.441406 0 104-46.558594 104-104 0-35.921875-18.160156-67.519531-45.839844-86.238281zm0 0" fill="#f9d48a"/><g fill="#232323"><path d="m96 240h16v64h-16zm0 0"/><path d="m64 320h16v64h-16zm0 0"/><path d="m96 320h16v64h-16zm0 0"/><path d="m128 320h16v64h-16zm0 0"/><path d="m160 320h16v64h-16zm0 0"/><path d="m160 240h-16c-8.824219 0-16 7.175781-16 16v32c0 8.824219 7.175781 16 16 16h16c8.824219 0 16-7.175781 16-16v-32c0-8.824219-7.175781-16-16-16zm-16 48v-32h16l.007812 32zm0 0"/><path d="m64 240h-16c-8.824219 0-16 7.175781-16 16v32c0 8.824219 7.175781 16 16 16h16c8.824219 0 16-7.175781 16-16v-32c0-8.824219-7.175781-16-16-16zm-16 48v-32h16l.007812 32zm0 0"/><path d="m208 304h16c8.824219 0 16-7.175781 16-16v-32c0-8.824219-7.175781-16-16-16h-16c-8.824219 0-16 7.175781-16 16v32c0 8.824219 7.175781 16 16 16zm0-48h16l.007812 32h-16.007812zm0 0"/><path d="m240 336c0-8.824219-7.175781-16-16-16h-16c-8.824219 0-16 7.175781-16 16v32c0 8.824219 7.175781 16 16 16h16c8.824219 0 16-7.175781 16-16zm-32 32v-32h16l.007812 32zm0 0"/><path d="m35.558594 145.34375 8.875 13.3125 19.566406-13.039062 24 16 24-16 16 10.664062v27.71875h16v-27.71875l24-16v-32l20.441406-13.625-8.875-13.3125-19.566406 13.039062-16-10.664062v-23.4375l20.441406-13.625-8.875-13.3125-19.566406 13.039062-24-16-32 21.335938v32l-16 10.664062-19.558594-13.039062-8.875 13.3125 20.433594 13.625v23.4375zm116.441406-13.625-16 10.664062-16-10.664062v-23.4375l16-10.671875 16 10.664063zm-56-71.4375 16-10.664062 16 10.664062v23.4375l-16 10.671875-16-10.671875zm-24 48 16-10.664062 16 10.671874v23.4375l-16 10.664063-16-10.664063zm0 0"/><path d="m248 0c-28.128906 0-55.671875 4.726562-81.992188 13.945312-16.023437-8.867187-34.433593-13.945312-54.007812-13.945312-61.761719 0-112 50.238281-112 112 0 19.574219 5.078125 37.984375 13.945312 54.007812-9.21875 26.320313-13.945312 53.863282-13.945312 81.992188 0 136.742188 111.257812 248 248 248s248-111.257812 248-248-111.257812-248-248-248zm10.953125 408h122.160156c.65625 5.167969 1.207031 10.503906 1.648438 16h-125.464844c.4375-5.496094.992187-10.824219 1.65625-16zm2.4375-16c.992187-5.503906 2.089844-10.847656 3.320313-16h110.535156c1.242187 5.167969 2.386718 10.472656 3.386718 16zm7.648437-32c1.6875-5.535156 3.554688-10.824219 5.503907-16h90.945312c1.9375 5.144531 3.71875 10.496094 5.398438 16zm12.121094-32c2.480469-5.488281 5.0625-10.832031 7.792969-16h62.078125c2.730469 5.175781 5.335938 10.503906 7.824219 16zm16.824219-32c6.960937-11.664062 14.382813-22.816406 22.015625-33.921875 7.632812 11.105469 15.0625 22.257813 22.023438 33.921875zm22.015625-62.078125c-7.632812-11.105469-15.054688-22.257813-22.015625-33.921875h44.039063c-6.96875 11.664062-14.390626 22.816406-22.023438 33.921875zm31.03125-49.921875h-62.078125c-2.730469-5.167969-5.3125-10.511719-7.792969-16h77.6875c-2.480468 5.496094-5.085937 10.824219-7.816406 16zm14.457031-32h-90.945312c-1.949219-5.175781-3.808594-10.464844-5.503907-16h101.847657c-1.679688 5.503906-3.460938 10.855469-5.398438 16zm9.75-32h-110.527343c-1.230469-5.152344-2.328126-10.496094-3.320313-16h117.234375c-1 5.527344-2.144531 10.832031-3.386719 16zm5.859375-32h-122.144531c-.65625-5.175781-1.21875-10.503906-1.65625-16h125.457031c-.441406 5.503906-1 10.824219-1.65625 16zm-269.097656-72c52.9375 0 96 43.0625 96 96s-43.0625 96-96 96-96-43.0625-96-96 43.0625-96 96-96zm-96 232c0-22.199219 3.265625-43.992188 9.414062-65.054688 20.554688 25.046876 51.730469 41.054688 86.585938 41.054688 61.761719 0 112-50.238281 112-112 0-34.855469-16.007812-66.03125-41.054688-86.585938 21.0625-6.148437 42.855469-9.414062 65.054688-9.414062 48.175781 0 92.953125 14.769531 130.078125 40h-121.734375c-.199219-5.207031-.34375-10.496094-.34375-16h-16c0 103.40625 35.191406 157.230469 70.28125 208-35.089844 50.769531-70.28125 104.59375-70.28125 208h16c0-5.503906.144531-10.792969.34375-16h121.734375c-37.125 25.230469-81.902344 40-130.078125 40-127.929688 0-232-104.070312-232-232zm382.777344 176.105469c-6.425782-83.082031-37.785156-130.867188-69.058594-176.105469 31.273438-45.246094 62.640625-93.015625 69.066406-176.105469 49.664063 42.585938 81.214844 105.714844 81.214844 176.105469 0 70.398438-31.558594 133.527344-81.222656 176.105469zm0 0"/></g></svg>