<svg id="Layer_1_1_" enable-background="new 0 0 64 64" height="512" viewBox="0 0 64 64" width="512" xmlns="http://www.w3.org/2000/svg"><path d="m54.95537 40c0 3.31371-4 6-4 6s-4-2.68629-4-6 4-8 4-8 4 4.68629 4 8z" fill="#93c666"/><path d="m53.1461 48.1461c-2.36425 2.36425-2.14043 7.84823-2.14043 7.84823s5.48398.22382 7.84823-2.14043 2.14043-7.84823 2.14043-7.84823-5.48398-.22382-7.84823 2.14043z" fill="#93c666"/><path d="m43.1461 53.8539c2.36425 2.36425 7.84823 2.14043 7.84823 2.14043s.22382-5.48398-2.14043-7.84823-7.84823-2.14043-7.84823-2.14043-.22382 5.48398 2.14043 7.84823z" fill="#93c666"/><path d="m31 10.07104c0-3.90521-3.16583-7.07104-7.07104-7.07104-1.87537 0-3.67395.745-5 2.07104l-6.92896 6.92896 10 10 6.92896-6.92896c1.32604-1.32604 2.07104-3.12463 2.07104-5z" fill="#ea5b58"/><path d="m5.07104 18.92889c-1.32604 1.32611-2.07104 3.12464-2.07104 5 0 3.90528 3.16583 7.07111 7.07104 7.07111 1.87537 0 3.67395-.745 5-2.07111l6.92896-6.92889-10-10z" fill="#ffb554"/><g fill="#1e191a"><path d="m55.95557 40c0-3.64014-4.06641-8.44629-4.23926-8.64941-.37988-.44434-1.1416-.44434-1.52148 0-.17286.20312-4.23926 5.00927-4.23926 8.64941 0 3.12646 2.87628 5.64282 4.0014 6.50787l.00385 1.38818c-.12659-.15912-.25714-.31445-.39978-.45709-2.64307-2.64355-8.35107-2.44287-8.59619-2.43213-.52002.021-.93701.43799-.95801.95801-.01025.24219-.21191 5.95264 2.43213 8.59619 1.99323 1.99323 5.72528 2.36859 7.54712 2.42859l.01391 5.01331 2-.00586-.01392-5.00671c1.8111-.05701 5.57141-.42529 7.57495-2.42932 2.64404-2.64355 2.44238-8.354 2.43213-8.59619-.021-.52002-.43799-.93701-.95801-.95801-.24219-.0083-5.95264-.21191-8.59619 2.43213-.17133.17126-.32959.35645-.47784.55115l-.00415-1.48438c1.12732-.86725 3.9986-3.38208 3.9986-6.50574zm-8 0c0-1.94482 1.76807-4.73877 3.00049-6.39014 1.23193 1.64941 2.99951 4.44092 2.99951 6.39014 0 2.05859-1.99805 3.93555-3 4.74707-1.00196-.81152-3-2.68848-3-4.74707zm-4.10254 13.14697c-1.38232-1.38232-1.77832-4.34863-1.84473-6.13867 1.79004.06641 4.75635.4624 6.13867 1.84473 1.33362 1.33362 1.74567 4.13171 1.83301 5.93542l.00055.20258c-1.79108-.06763-4.74786-.46442-6.1275-1.84406zm10-4.29394c1.38232-1.38232 4.34863-1.77832 6.13867-1.84473-.06641 1.79004-.4624 4.75635-1.84473 6.13867s-4.34863 1.77832-6.13867 1.84473c.06641-1.79004.4624-4.75635 1.84473-6.13867z"/><path d="m10.07129 32c2.15576 0 4.18262-.83984 5.70703-2.36426l13.85742-13.85742c1.52442-1.52441 2.36426-3.55127 2.36426-5.70703 0-4.45068-3.62061-8.07129-8.07129-8.07129-2.15576 0-4.18262.83984-5.70703 2.36426l-13.85742 13.85742c-1.52442 1.52441-2.36426 3.55127-2.36426 5.70703 0 4.45068 3.62061 8.07129 8.07129 8.07129zm9.56445-26.22168c1.14697-1.14697 2.67139-1.77832 4.29297-1.77832 3.34766 0 6.07129 2.72363 6.07129 6.07129 0 1.62158-.63135 3.146-1.77832 4.29297l-6.22168 6.22168-8.58594-8.58594zm-13.85742 13.85742 6.22168-6.22168 8.58594 8.58594-6.22168 6.22168c-1.14697 1.14697-2.67139 1.77832-4.29297 1.77832-3.34766 0-6.07129-2.72363-6.07129-6.07129 0-1.62158.63135-3.146 1.77832-4.29297z"/><path d="m37.29297 11.70703 1.41406-1.41406-1.29297-1.29297h9.58594c1.6543 0 3 1.3457 3 3v9h2v-9c0-2.75684-2.24316-5-5-5h-9.58594l1.29297-1.29297-1.41406-1.41406-3 3c-.39062.39062-.39062 1.02344 0 1.41406z"/><path d="m50 23h2v2h-2z"/><path d="m50 27h2v2h-2z"/><path d="m35.70703 58.70703 3-3c.39062-.39062.39062-1.02344 0-1.41406l-3-3-1.41406 1.41406 1.29297 1.29297h-23.58594c-1.6543 0-3-1.3457-3-3v-5h-2v5c0 2.75684 2.24316 5 5 5h23.58594l-1.29297 1.29297z"/><path d="m7 38h2v2h-2z"/><path d="m7 34h2v2h-2z"/><path d="m7 42h2v2h-2z"/></g></svg>