<svg id="Layer_1" data-name="Layer 1" xmlns="http://www.w3.org/2000/svg" viewBox="0 0 488 488"><defs><style>.cls-1{fill:#ded8d0;}.cls-2{fill:#c9c4bd;}.cls-3{fill:#f5a947;}.cls-4{fill:#f09d3a;}.cls-5{fill:#d7385e;}.cls-6{fill:#50b6cf;}.cls-7{fill:#0d0f23;}</style></defs><title>calendar</title><path class="cls-1" d="M408,64a32,32,0,0,1,32,32V413.13a32,32,0,0,1-32,32H56a32,32,0,0,1-32-32V96A32,32,0,0,1,56,64Z" transform="translate(-16 -16)"/><path class="cls-2" d="M56,445.13H408a32,32,0,0,0,32-32V240C364.29,322.83,236.21,383.77,24,395.14v18A32,32,0,0,0,56,445.13Z" transform="translate(-16 -16)"/><circle class="cls-3" cx="392" cy="392" r="88"/><path class="cls-4" d="M460.73,337.67A87.88,87.88,0,0,1,337.67,460.73,87.92,87.92,0,1,0,460.73,337.67Z" transform="translate(-16 -16)"/><path class="cls-5" d="M440,144H24V96A32,32,0,0,1,56,64H408a32,32,0,0,1,32,32Z" transform="translate(-16 -16)"/><path class="cls-3" d="M96,104A16,16,0,0,1,80,88V40a16,16,0,0,1,32,0V88A16,16,0,0,1,96,104Z" transform="translate(-16 -16)"/><path class="cls-3" d="M184,104a16,16,0,0,1-16-16V40a16,16,0,0,1,32,0V88A16,16,0,0,1,184,104Z" transform="translate(-16 -16)"/><path class="cls-3" d="M280,104a16,16,0,0,1-16-16V40a16,16,0,0,1,32,0V88A16,16,0,0,1,280,104Z" transform="translate(-16 -16)"/><path class="cls-3" d="M368,104a16,16,0,0,1-16-16V40a16,16,0,0,1,32,0V88A16,16,0,0,1,368,104Z" transform="translate(-16 -16)"/><path class="cls-6" d="M72,184h48v48H72Z" transform="translate(-16 -16)"/><path class="cls-6" d="M160,184h48v48H160Z" transform="translate(-16 -16)"/><path class="cls-6" d="M248,184h48v48H248Z" transform="translate(-16 -16)"/><path class="cls-6" d="M336,184h48v48H336Z" transform="translate(-16 -16)"/><path class="cls-6" d="M72,272h48v48H72Z" transform="translate(-16 -16)"/><path class="cls-6" d="M160,272h48v48H160Z" transform="translate(-16 -16)"/><path class="cls-6" d="M248,272h48v48H248Z" transform="translate(-16 -16)"/><path class="cls-6" d="M336,272h48v48H336Z" transform="translate(-16 -16)"/><path class="cls-6" d="M72,360h48v48H72Z" transform="translate(-16 -16)"/><path class="cls-6" d="M160,360h48v48H160Z" transform="translate(-16 -16)"/><path class="cls-6" d="M248,360h48v48H248Z" transform="translate(-16 -16)"/><path class="cls-7" d="M448,320.84V96a40.05,40.05,0,0,0-40-40H392V40a24,24,0,0,0-48,0V56H304V40a24,24,0,0,0-48,0V56H208V40a24,24,0,0,0-48,0V56H120V40a24,24,0,0,0-48,0V56H56A40.05,40.05,0,0,0,16,96V416a40.05,40.05,0,0,0,40,40H325A95.92,95.92,0,1,0,448,320.84ZM360,40a8,8,0,0,1,16,0V88a8,8,0,0,1-16,0Zm-88,0a8,8,0,0,1,16,0V88a8,8,0,0,1-16,0Zm-96,0a8,8,0,0,1,16,0V88a8,8,0,0,1-16,0ZM88,40a8,8,0,0,1,16,0V88a8,8,0,0,1-16,0ZM56,72H72V88a24,24,0,0,0,48,0V72h40V88a24,24,0,0,0,48,0V72h48V88a24,24,0,0,0,48,0V72h40V88a24,24,0,0,0,48,0V72h16a24,24,0,0,1,24,24v40H32V96A24,24,0,0,1,56,72Zm0,368a24,24,0,0,1-24-24V152H432V315.16a91.46,91.46,0,0,0-40-1.72V272a8,8,0,0,0-8-8H336a8,8,0,0,0-8,8v48a8,8,0,0,0,8,8h19.05A95.46,95.46,0,0,0,317.6,440ZM376,312H344V280h32Zm32,176a80,80,0,1,1,80-80A80.09,80.09,0,0,1,408,488Z" transform="translate(-16 -16)"/><path class="cls-7" d="M416,394.22V344H400v50.22A15.93,15.93,0,0,0,392,408a15.22,15.22,0,0,0,.24,2.36L363,433.75l10,12.5,29.21-23.37A15.95,15.95,0,0,0,416,394.22Z" transform="translate(-16 -16)"/><path class="cls-7" d="M120,176H72a8,8,0,0,0-8,8v48a8,8,0,0,0,8,8h48a8,8,0,0,0,8-8V184A8,8,0,0,0,120,176Zm-8,48H80V192h32Z" transform="translate(-16 -16)"/><path class="cls-7" d="M208,176H160a8,8,0,0,0-8,8v48a8,8,0,0,0,8,8h48a8,8,0,0,0,8-8V184A8,8,0,0,0,208,176Zm-8,48H168V192h32Z" transform="translate(-16 -16)"/><path class="cls-7" d="M296,176H248a8,8,0,0,0-8,8v48a8,8,0,0,0,8,8h48a8,8,0,0,0,8-8V184A8,8,0,0,0,296,176Zm-8,48H256V192h32Z" transform="translate(-16 -16)"/><path class="cls-7" d="M336,240h48a8,8,0,0,0,8-8V184a8,8,0,0,0-8-8H336a8,8,0,0,0-8,8v48A8,8,0,0,0,336,240Zm8-48h32v32H344Z" transform="translate(-16 -16)"/><path class="cls-7" d="M120,264H72a8,8,0,0,0-8,8v48a8,8,0,0,0,8,8h48a8,8,0,0,0,8-8V272A8,8,0,0,0,120,264Zm-8,48H80V280h32Z" transform="translate(-16 -16)"/><path class="cls-7" d="M208,264H160a8,8,0,0,0-8,8v48a8,8,0,0,0,8,8h48a8,8,0,0,0,8-8V272A8,8,0,0,0,208,264Zm-8,48H168V280h32Z" transform="translate(-16 -16)"/><path class="cls-7" d="M296,264H248a8,8,0,0,0-8,8v48a8,8,0,0,0,8,8h48a8,8,0,0,0,8-8V272A8,8,0,0,0,296,264Zm-8,48H256V280h32Z" transform="translate(-16 -16)"/><path class="cls-7" d="M120,352H72a8,8,0,0,0-8,8v48a8,8,0,0,0,8,8h48a8,8,0,0,0,8-8V360A8,8,0,0,0,120,352Zm-8,48H80V368h32Z" transform="translate(-16 -16)"/><path class="cls-7" d="M208,352H160a8,8,0,0,0-8,8v48a8,8,0,0,0,8,8h48a8,8,0,0,0,8-8V360A8,8,0,0,0,208,352Zm-8,48H168V368h32Z" transform="translate(-16 -16)"/><path class="cls-7" d="M296,352H248a8,8,0,0,0-8,8v48a8,8,0,0,0,8,8h48a8,8,0,0,0,8-8V360A8,8,0,0,0,296,352Zm-8,48H256V368h32Z" transform="translate(-16 -16)"/></svg>