<svg id="Capa_1" enable-background="new 0 0 512 512" height="512" viewBox="0 0 512 512" width="512" xmlns="http://www.w3.org/2000/svg"><g><path d="m351 224v64c0 8.28-6.72 15-15 15h-160c-8.28 0-15-6.72-15-15v-64c0-56.554 37.555-111 95-111 57.456 0 95 54.461 95 111z" fill="#dd5958"/><path d="m351 224v64c0 8.28-6.72 15-15 15h-80v-190c57.456 0 95 54.461 95 111z" fill="#d8225b"/><path d="m327 72c0 39.15-31.85 71-71 71s-71-31.85-71-71c0-39.314 31.822-72 71-72 39.155 0 71 32.666 71 72z" fill="#f5dccc"/><path d="m327 72c0 39.15-31.85 71-71 71v-143c39.155 0 71 32.666 71 72z" fill="#f0cabb"/><path d="m48 303c-8.284 0-15-6.716-15-15v-64c0-2.719.739-5.387 2.138-7.718l31.53-52.55c4.262-7.104 13.473-9.409 20.58-5.145 7.104 4.262 9.407 13.477 5.145 20.58l-29.393 48.988v59.845c0 8.284-6.716 15-15 15z" fill="#425796"/><circle cx="96" cy="144" fill="#283758" r="47"/><path d="m464 303c-8.284 0-15-6.716-15-15v-59.845l-29.393-48.987c-4.263-7.104-1.959-16.318 5.145-20.58 7.105-4.264 16.318-1.959 20.58 5.145l31.53 52.55c1.398 2.331 2.138 4.999 2.138 7.718v64c0 8.283-6.716 14.999-15 14.999z" fill="#283758"/><circle cx="416" cy="144" fill="#182135" r="47"/><path d="m447 368v129c0 8.28-6.72 15-15 15h-352c-8.28 0-15-6.72-15-15v-129c0-8.28 6.72-15 15-15h352c8.28 0 15 6.72 15 15z" fill="#eef4ff"/><path d="m447 368v129c0 8.28-6.72 15-15 15h-176v-159h176c8.28 0 15 6.72 15 15z" fill="#d9e6fc"/><path d="m335 448c0 8.28-6.72 15-15 15h-128c-8.28 0-15-6.72-15-15s6.72-15 15-15h128c8.28 0 15 6.72 15 15z" fill="#94dfda"/><path d="m335 448c0 8.28-6.72 15-15 15h-64v-30h64c8.28 0 15 6.72 15 15z" fill="#61a7c5"/><path d="m512 288v80c0 8.28-6.72 15-15 15h-482c-8.28 0-15-6.72-15-15v-80c0-8.28 6.72-15 15-15h482c8.28 0 15 6.72 15 15z" fill="#d9e6fc"/><path d="m512 288v80c0 8.28-6.72 15-15 15h-241v-110h241c8.28 0 15 6.72 15 15z" fill="#bed9fd"/></g></svg>